<?xml version="1.0" encoding="utf-8"?>
<!-- Generator: Adobe Illustrator 20.1.0, SVG Export Plug-In . SVG Version: 6.00 Build 0)  -->
<svg version="1.1" id="Capa_1" xmlns="http://www.w3.org/2000/svg" xmlns:xlink="http://www.w3.org/1999/xlink" x="0px" y="0px"
	 viewBox="0 0 251.9 212" style="enable-background:new 0 0 251.9 212;" xml:space="preserve">
<style type="text/css">
	.st0{opacity:0.15;fill:#6B99D1;}
	.st1{fill:#291D51;}
	.st2{fill:#F28F8F;}
	.st3{fill:#2D2979;}
	.st4{fill:#FFA8A7;}
	.st5{fill:#1E3779;}
	.st6{fill:#031F60;}
	.st7{fill:#344593;}
	.st8{opacity:0.2;fill:#E9FFFB;}
	.st9{fill:none;stroke:#E9FFFB;stroke-miterlimit:10;}
	.st10{fill:#3FE0C5;}
	.st11{fill:#6CFFE6;}
	.st12{fill:#DCEEFF;}
	.st13{fill:#FFFFFF;}
	.st14{fill:#A5CBFA;}
	.st15{fill:#C8E2FF;}
	.st16{fill:#3A2C6D;}
	.st17{fill:#7FA8E6;}
	.st18{fill:#F5FBFB;}
	#carta{
		animation-name:cartaMove;
		animation-duration:3s;
		animation-iteration-count: infinite;
	}

	#screen2 {
		animation-name:floatY;
		animation-duration:4s;
		animation-iteration-count:infinite;
	}

	
	@keyframes cartaMove {
		0% { 
			transform:translate(-100px,60px);
			opacity: 0%;
		}

		8% { 
			transform:translate(-20px,10px);
			opacity: 100%;
		}

		40% { 
			transform:translate(0px,0px);
		}

		90% { 
			transform:translate(0px,0px);
			opacity: 100%;
		}

		100% { 
			transform:translate(0px,-60px);
			opacity: 0%;
		}
	}

	@keyframes floatY {
		0%{
			transform:translate(0px, 0px);
		}

		50%{
			transform:translate(0px, 10px);
		}
		
		100%{
			transform:translate(0px, 0px);
		}
	}

	@keyframes floatX {
		0%{
			transform:translate(0px, 0px);
		}

		50%{
			transform:translate(-5px, 0px);
		}
		
		100%{
			transform:translate(0px, 0px);
		}
	}
</style>
<g id="pantalla">
	<path id="XMLID_4156_" class="st0" d="M74.2,184.3l99.8-57.7c0.5-0.3,1.3-0.3,1.7,0l2.3,1.4c0.5,0.3,0.5,0.7,0,1l-99.8,57.6
		c-0.5,0.3-1.3,0.3-1.7,0l-2.3-1.3C73.7,185,73.7,184.6,74.2,184.3z"/>
	<g id="XMLID_41_">
		<path id="XMLID_290_" class="st0" d="M148.2,174l7.1-4.1c4.8-2.8,11.4-3.4,14.8-1.5c3.4,1.9,2.2,5.8-2.6,8.5l-7.1,4.1
			c-4.8,2.8-11.4,3.4-14.8,1.5C142.2,180.5,143.4,176.7,148.2,174z"/>
		<g id="XMLID_2506_">
			<path id="XMLID_2574_" class="st1" d="M162.7,175.7c0,0,0.4,0.7,2.4-0.2c2-0.8,2.6-1.9,2.6-1.9s-0.5-4-1.8-3
				C164.6,171.6,162.7,175.7,162.7,175.7z"/>
			<path id="XMLID_2552_" class="st2" d="M167.7,161.5c0,2.1-0.1,3.7,0.7,4.9c0.8,1.1,0.9,1.9,0.9,1.9s-2.4,0.3-3.6,2
				c-1.2,1.7-1.2,3.3-2.3,3.6c-1.1,0.3-3-1-3-1s1.2,0,1.7-1.5c0.5-1.5,1.7-4.7,1.7-5.6c0-0.8,0-4.1,0-4.1L167.7,161.5z"/>
			<path id="XMLID_2508_" class="st3" d="M167.8,167c-1,0.1-2.6,1.2-3.2,2.4c-0.5,1.2-1.4,2.9-2.1,3.3c-0.7,0.4-1.9-0.2-2.9-0.2
				c-1,0-1.8,0.5-1.8,1.2c0,0,3.3,1.6,4.3,2c1,0.5,1.8,0.5,2.6-1.6c0.8-2,1.1-3.2,1.7-1.8c0.6,1.4,0.9,4.5,0.9,4.5s0.8,0.3,1.2-0.5
				c0,0,0-1.5,0.2-2.7c0.2-1.3,1.3-2.8,1.2-4.4C169.7,167.8,168.9,166.9,167.8,167z"/>
		</g>
		<g id="XMLID_2494_">
			<path id="XMLID_2495_" class="st2" d="M162.7,143.5l5.2,0.5c0,0,1.2,2.5,1.2,3.7c1.5,3.8-1.2,13.6-0.9,18c0,0-2.4,1.3-4.3,0.1
				c0,0-2-19-2.4-22.4L162.7,143.5z"/>
		</g>
		<g id="XMLID_381_">
			<path id="XMLID_2155_" class="st1" d="M152.1,180.7c0,0,0.4,0.7,2.4-0.2c2-0.8,2.6-1.9,2.6-1.9s-0.5-4-1.8-3
				C154,176.6,152.1,180.7,152.1,180.7z"/>
			<path id="XMLID_2123_" class="st4" d="M157.2,166.5c0,2.1-0.1,3.7,0.7,4.9c0.8,1.1,0.9,1.9,0.9,1.9s-2.4,0.3-3.6,2
				c-1.2,1.7-1.2,3.3-2.3,3.6c-1.1,0.3-3-1-3-1s1.2,0,1.7-1.5c0.5-1.5,1.7-4.7,1.7-5.6c0-0.8,0-4.1,0-4.1L157.2,166.5z"/>
			<path id="XMLID_386_" class="st3" d="M157.2,172c-1,0.1-2.6,1.2-3.2,2.4c-0.5,1.2-1.4,2.9-2.1,3.3c-0.7,0.4-1.9-0.2-2.9-0.2
				c-1,0-1.8,0.5-1.8,1.2c0,0,3.3,1.6,4.3,2c1,0.5,1.8,0.5,2.6-1.6c0.8-2,1.1-3.2,1.7-1.8c0.6,1.4,0.9,4.5,0.9,4.5s0.8,0.3,1.2-0.5
				c0,0,0-1.5,0.2-2.7c0.2-1.3,1.3-2.8,1.2-4.4C159.1,172.8,158.3,171.9,157.2,172z"/>
		</g>
		<path id="XMLID_376_" class="st4" d="M158.4,153.2c1.4,2.3-0.3,8.5-1,17.4c0,0-2,1.5-4.3,0.3c0,0-1.9-18.6-2.3-22"/>
	</g>
	<g id="pantallas">
		<g id="screen2">
			<path id="XMLID_3347_" class="st5" d="M179.5,110.9l-96.7,55.8l-3.3,1.9l-3.9-2.3c-0.5-0.3-0.9-1-0.9-1.5V84.4
				c0-0.3,0.1-0.7,0.3-1c0.2-0.3,0.4-0.6,0.7-0.8L173.8,26c0.5-0.3,1.3-0.3,1.7,0l3.9,2.3L179.5,110.9z"/>
			<path id="XMLID_3345_" class="st6" d="M82.8,87.9v78.8l-3.3,1.9l-3.9-2.3c-0.5-0.3-0.9-1-0.9-1.5V84.4c0-0.3,0.1-0.7,0.3-1
				L82.8,87.9z"/>
			<path id="XMLID_3269_" class="st7" d="M81.3,84.1l96.4-55.6c1.4-0.8,2.6-0.2,2.6,1.5v78.4c0,1.7-1.2,3.7-2.6,4.5l-96.4,55.6
				c-1.4,0.8-2.6,0.2-2.6-1.5l0-78.4C78.7,86.9,79.9,84.9,81.3,84.1z"/>
		</g>
		<g id="screen1">
			<path id="XMLID_3271_" class="st8" d="M97.6,84.1L194,28.4c1.4-0.8,2.6-0.2,2.6,1.5v78.4c0,1.7-1.2,3.7-2.6,4.5l-96.4,55.6
				c-1.4,0.8-2.6,0.2-2.6-1.5V88.6C95,86.9,96.2,84.9,97.6,84.1z"/>
			<path id="XMLID_3272_" class="st9" d="M97.6,84.1L194,28.4c1.4-0.8,2.6-0.2,2.6,1.5v78.4c0,1.7-1.2,3.7-2.6,4.5l-96.4,55.6
				c-1.4,0.8-2.6,0.2-2.6-1.5V88.6C95,86.9,96.2,84.9,97.6,84.1z"/>
		</g>
		<g id="carta">
			<g>
				<g>
					<g>
						<g>
							<g>
								<path class="st10" d="M169.4,75.6l-31.1,41.6l-34.8-12.4l-0.5,0.2v38.8c3,1,3.7,1.4,4.1,1c15-15.7,41.8-26.4,60.8-36.9
									c0-12.9,3.5-23,3.5-36L169.4,75.6z"/>
							</g>
						</g>
						<polygon class="st10" points="106.5,101.9 110.6,102.9 169,70.5 165,69.5 						"/>
					</g>
				</g>
				<g>
					<g>
						<g>
							<g>
								<polygon class="st11" points="171.5,70.4 141,107.8 107.5,105.8 107,106.1 107,144.9 172,109 172,70.2 								"/>
							</g>
						</g>
						<polygon class="st11" points="110.5,102.9 141,104.8 169,70.5 						"/>
					</g>
				</g>
			</g>
		</g>
		<g id="grafismo">
			<path id="XMLID_3284_" class="st10" d="M151.6,60c0,0.8,0.7,1,1.6,0.5l14.4-8.3c0.9-0.5,1.6-1.6,1.6-2.4c0-0.8-0.7-1-1.6-0.5
				l-14.4,8.3C152.3,58.1,151.6,59.2,151.6,60z"/>
			<path id="XMLID_3346_" class="st10" d="M151.6,65.9c0,0.8,0.7,1,1.6,0.5l14.4-8.3c0.9-0.5,1.6-1.6,1.6-2.4c0-0.8-0.7-1-1.6-0.5
				l-14.4,8.3C152.3,64,151.6,65.1,151.6,65.9z"/>
		</g>
	</g>
	<g id="XMLID_2633_">
		<path id="XMLID_4152_" class="st0" d="M205.9,184.9l-23.2-13.4c-1.4-0.8-3.8-0.8-5.2,0l-23.2,13.4c-1.4,0.8-1.4,2.2,0,3l23.2,13.4
			c1.4,0.8,3.8,0.8,5.2,0l23.2-13.4C207.3,187.1,207.3,185.7,205.9,184.9z"/>
		<path id="XMLID_3193_" class="st12" d="M205.9,156.1l-23.2-13.4c-1.4-0.8-3.8-0.8-5.2,0l-23.2,13.4c-1.4,0.8-1.4,2.2,0,3
			l23.2,13.4c1.4,0.8,3.8,0.8,5.2,0l23.2-13.4C207.3,158.3,207.3,157,205.9,156.1z"/>
		<g id="XMLID_2718_">
			<path class="st13" d="M180.1,143.1c0.8,0,1.6,0.2,2.1,0.5l23.2,13.4c0.4,0.2,0.6,0.5,0.6,0.6c0,0.1-0.2,0.4-0.6,0.6l-23.2,13.4
				c-0.5,0.3-1.3,0.5-2.1,0.5c-0.8,0-1.6-0.2-2.1-0.5l-23.2-13.4c-0.4-0.2-0.6-0.5-0.6-0.6c0-0.1,0.2-0.4,0.6-0.6l23.2-13.4
				C178.5,143.3,179.3,143.1,180.1,143.1 M180.1,142.1c-0.9,0-1.9,0.2-2.6,0.6l-23.2,13.4c-1.4,0.8-1.4,2.2,0,3l23.2,13.4
				c0.7,0.4,1.7,0.6,2.6,0.6c0.9,0,1.9-0.2,2.6-0.6l23.2-13.4c1.4-0.8,1.4-2.2,0-3l-23.2-13.4C181.9,142.3,181,142.1,180.1,142.1
				L180.1,142.1z"/>
		</g>
		<path id="XMLID_2710_" class="st14" d="M207,181.1c0,0.6-0.4,1.1-1.1,1.5L182.7,196c-0.7,0.4-1.5,0.6-2.6,0.6v-23.5
			c1,0,1.9-0.2,2.6-0.6l23.2-13.4c0.6-0.3,1.1-0.8,1.1-1.5V181.1z"/>
		<path id="XMLID_2635_" class="st15" d="M153.1,181.1c0,0.6,0.4,1.1,1.1,1.5l23.2,13.4c0.7,0.4,1.5,0.6,2.6,0.6v-23.5
			c-1,0-1.9-0.2-2.6-0.6l-23.2-13.4c-0.6-0.3-1.1-0.8-1.1-1.5V181.1z"/>
	</g>
	<g id="XMLID_119_">
		<path id="XMLID_288_" class="st16" d="M184.6,104.9c-1.8-1.2-4.3-2-6.4-1.6c-1.4,0.3-2.5,1.1-3.4,2.2c-0.4,0.5-1.1,2-0.7,4
			c0.2,1,0.9,1.9,1.8,2c0.6,0.1,1.2-0.1,1.7-0.4c0.4-0.2,0.7-0.6,1.1-0.9c0.7-0.6,1.4-1.2,2.1-1.8c1.1-1,2.3-2.1,3.4-3.1
			C184.2,105.2,184.6,104.8,184.6,104.9z"/>
		<path id="XMLID_285_" class="st2" d="M168,138.6c2.4,0.9,18.2,7.1,18.2,7.1s-0.7,11.7-4.2,9.8l-16.2-9.8l-4.3-2.4
			C161,139.5,165.3,137.7,168,138.6z"/>
		<g id="XMLID_210_">
			<path id="XMLID_227_" class="st4" d="M151,148.9c-0.4-3.8,3.9-5.7,6.6-4.7c2.4,0.9,18.5,6.5,18.5,6.5l14.3-0.8
				c2.5,5.9-1.8,8.8-6.4,10.8c-4.6,2-8.9,2.3-12.4,0.4l-16.2-9.8l2.1-1.8c0,0,1.1,2.4,1.1,3.7"/>
		</g>
		<path id="XMLID_169_" class="st4" d="M175.4,110c0.5-3.4,3-6,6.5-5.8c3.8,0.2,6.6,3.4,6.4,7.2c-0.1,2.2-1.3,4.1-3,5.2
			c0,0-0.4,0.7-0.6,1c0,0,0.5,2.4,0.6,2.7c0.3,0.9,0.5,0.6,3.1,0.7c1.3,0,0.8,0.2,0.1,1.8c-0.6,1.4-3,2.9-5.2,3.1
			c-2.2,0.3-5.6-1.3-4.3-2.1c1.3-0.9,1.8-1,1.7-1.7c-0.2-0.9-0.4-1.7-0.6-2.2c-0.7,0.2-1.2,0.3-1.5,0.3c-1.4,0.1-2-0.9-2.7-2.5
			C174.9,115.1,175.1,111.6,175.4,110z"/>
		<path id="XMLID_162_" class="st2" d="M180.2,119.9c-0.7,0.2-1.2,0.3-1.5,0.3c-0.3,0-0.6,0-0.9-0.1c0.3-0.1,0.8-0.3,1.3-0.8
			c1.1-0.8,0.9-2.7,0.8-3.7l0.4,1l0.7,0.6l2.6,0.7l1.1-0.1c0.1,0.6,0.4,2.2,0.5,2.4c0.3,0.9,0.5,0.6,3.1,0.7c1.3,0,0.8,0.2,0.1,1.8
			c-0.4,0.9-1.4,1.8-2.7,2.4l-1.1,0.4c0,0-0.1,0-0.1,0l-5.2-2c1.1-0.7,1.6-0.9,1.5-1.5C180.6,121.2,180.4,120.4,180.2,119.9z"/>
		<path id="XMLID_161_" class="st17" d="M188.8,141.5c0.1,1.9,1.1,3.7,2.2,7.4c1.2,3.7,1.4,7.9-5.3,11.3c-6.7,3.3-11.1,2.8-14.4,1.1
			c-3.4-1.7-16-10-16-10c-1.5-2,4.2-10.7,15.7-11.5l8.1,3.2L188.8,141.5z"/>
		<path id="XMLID_157_" class="st18" d="M186.3,120.9c0.5,0.6,0.5,1.4-1.3,1.9c-2.5,0.6-4.1-0.3-4.1-0.3s-2.5,1.1-4.3,2.3
			c-4.2,2.9-5.2,8-1,9.8c0.3,1.9,0.6,6.8,0.7,8c3.6,2.5,10.9,1.7,12.6-1c0-0.9,0.2-2.4,0.3-2.7c1.7-6.4,3.1-8.1,2.6-12.9
			c-0.3-2.8-0.5-4.1-2-4.9C188.8,120.8,186.8,120.9,186.3,120.9z"/>
		<path id="XMLID_152_" class="st16" d="M186.1,116.7c1.6-1.6,2.1-3.2,2.2-5.4c0.2-3.8-2.7-7-6.4-7.2c-2.4-0.1-4.4,1-5.5,2.9
			c0,0,0.3,0.5,0.7,0.9c0,0-0.3,0.9,0.3,1.5c0.4,0.4,0.6,1,0.5,1.6c-0.1,0.6-0.1,1.4,0,2.1c0.1,1,1.1,1.4,1.1,1.4s0.1-1.7,0.6-2.4
			c0.6-0.9,1.5-0.9,2.3,0.1c0.5,0.6,0.5,2.2-0.1,3c-0.9,1.3-1.8,0.5-1.8,0.5c0.3,0.8,0.1,2,1.5,2.4c1.5,0.3,2.9-0.1,3.6-0.5
			C185.6,117.2,186.1,116.7,186.1,116.7z"/>
		<path id="XMLID_125_" class="st16" d="M185.7,105.5c1.8-0.5,3.4,2.2,4,5.9c0.6,3.7,0.7,6.3-0.5,7.7c-1.1,1.4-5.9,3.5-10.3,1.9
			c0,0,1.2-0.7,1-5.5c0,0,1.2,1.1,3.5,0.5c2.3-0.6,3.2-2.6,3-5.3C186.3,108.3,185.7,105.5,185.7,105.5z"/>
		<path id="XMLID_120_" class="st4" d="M151.7,124.2c0.4,0.8,0.9,1.4,1.3,2.6c0.4,1,0.5,1.4,1.2,2.2c0.7,0.8,2.9,2.1,6,3.8
			c3.1,1.6,5.6,1.6,7.5,1c4.1-1.4,6.3-5,9-7c1.8-1.4,3.6-0.7,3.9,0.6c0.2,1-0.7,3.9-3.9,6.8c-2.4,2.3-6.6,4.7-10.1,4.8
			c-2.2,0-4.9-0.7-6.7-1.6c-3-1.4-5.1-2.9-7.7-4.6c-0.7-0.5-1.4-0.6-2.8-1.4c-1.5-0.7-3-1.9-3.8-3.1c-0.8-1.2-0.8-1.7-0.7-1.9
			c0.2-0.3,0.6-0.2,1,0.3c0.4,0.5,1,1.4,2.1,2.1c0,0-0.9-1-1.4-1.7c-0.5-0.7-0.9-1.4-1.1-1.9c-0.3-0.7,0.3-1.6,0.8-1.1
			c0.4,0.5,0.6,1,1.4,1.9c0.7,0.9,1.4,1.4,1.4,1.4s-0.8-1.1-1.2-2.1c-0.5-1-0.5-1.6-0.4-1.9c0-0.3,0.5-0.7,1-0.1
			c0.4,0.6,0.6,1.5,1.6,2.6c0.7,0.7,1.3,1.2,1.3,1c0-0.2-0.4-0.6-0.6-1.5c-0.2-0.8,0.1-1.7,0.5-1.8
			C151.5,123.3,151.4,123.4,151.7,124.2z"/>
	</g>
</g>
</svg>
