<svg xmlns="http://www.w3.org/2000/svg" xmlns:xlink="http://www.w3.org/1999/xlink" width="185.639" height="185.639" viewBox="0 0 185.639 185.639"><defs><filter id="a" x="30" y="30" width="155.639" height="155.639" filterUnits="userSpaceOnUse"><feOffset dx="20" dy="20" input="SourceAlpha"/><feGaussianBlur stdDeviation="10" result="b"/><feFlood flood-color="#11436a" flood-opacity="0.18"/><feComposite operator="in" in2="b"/><feComposite in="SourceGraphic"/></filter><filter id="c" x="30" y="30" width="125.639" height="125.639" filterUnits="userSpaceOnUse"><feOffset dx="5" dy="5" input="SourceAlpha"/><feGaussianBlur stdDeviation="5" result="d"/><feFlood flood-color="#424242" flood-opacity="0.322"/><feComposite operator="in" in2="d"/><feComposite in="SourceGraphic"/></filter><filter id="e" x="0" y="0" width="155.639" height="155.639" filterUnits="userSpaceOnUse"><feOffset dx="-10" dy="-10" input="SourceAlpha"/><feGaussianBlur stdDeviation="10" result="f"/><feFlood flood-color="#3ba1f0" flood-opacity="0.251"/><feComposite operator="in" in2="f"/><feComposite in="SourceGraphic"/></filter><linearGradient id="g" x1="0.116" y1="0.772" x2="0.903" y2="0.259" gradientUnits="objectBoundingBox"><stop offset="0" stop-color="#69ace0"/><stop offset="1" stop-color="#1471bb"/></linearGradient><filter id="h" x="21" y="21" width="131.639" height="131.639" filterUnits="userSpaceOnUse"><feOffset dx="-1" dy="-1" input="SourceAlpha"/><feGaussianBlur stdDeviation="5" result="i"/><feFlood flood-color="#fff"/><feComposite operator="in" in2="i"/><feComposite in="SourceGraphic"/></filter></defs><g transform="translate(40 40)"><g transform="matrix(1, 0, 0, 1, -40, -40)" filter="url(#a)"><g transform="translate(40 40)" fill="#eee"><path d="M 47.81964111328125 90.63928985595703 C 42.03682327270508 90.63928985595703 36.42964172363281 89.50784301757813 31.15384101867676 87.27635955810547 C 26.05550765991211 85.11994171142578 21.4756908416748 82.03179168701172 17.54159164428711 78.09770965576172 C 13.6074914932251 74.16360473632813 10.51934146881104 69.58377075195313 8.362940788269043 64.48544311523438 C 6.131457805633545 59.20964050292969 5.000007629394531 53.60245895385742 5.000007629394531 47.81964111328125 C 5.000007629394531 42.03682327270508 6.131457805633545 36.42964172363281 8.362940788269043 31.15384101867676 C 10.51934146881104 26.05550765991211 13.6074914932251 21.4756908416748 17.54159164428711 17.54159164428711 C 21.4756908416748 13.6074914932251 26.05550765991211 10.51934146881104 31.15384101867676 8.362940788269043 C 36.42964172363281 6.131457805633545 42.03682327270508 5.000007629394531 47.81964111328125 5.000007629394531 C 53.60245895385742 5.000007629394531 59.20964050292969 6.131457805633545 64.48544311523438 8.362940788269043 C 69.58377075195313 10.51934146881104 74.16360473632813 13.6074914932251 78.09770965576172 17.54159164428711 C 82.03179168701172 21.4756908416748 85.11994171142578 26.05550765991211 87.27635955810547 31.15384101867676 C 89.50784301757813 36.42964172363281 90.63928985595703 42.03682327270508 90.63928985595703 47.81964111328125 C 90.63928985595703 53.60245895385742 89.50784301757813 59.20964050292969 87.27635955810547 64.48544311523438 C 85.11994171142578 69.58377075195313 82.03179168701172 74.16360473632813 78.09770965576172 78.09770965576172 C 74.16360473632813 82.03179168701172 69.58377075195313 85.11994171142578 64.48544311523438 87.27635955810547 C 59.20964050292969 89.50784301757813 53.60245895385742 90.63928985595703 47.81964111328125 90.63928985595703 Z" stroke="none"/><path d="M 47.81964111328125 9.999992370605469 C 26.96581268310547 9.999992370605469 9.999992370605469 26.96581268310547 9.999992370605469 47.81964111328125 C 9.999992370605469 68.67344665527344 26.96581268310547 85.63927459716797 47.81964111328125 85.63927459716797 C 68.67344665527344 85.63927459716797 85.63927459716797 68.67344665527344 85.63927459716797 47.81964111328125 C 85.63927459716797 26.96581268310547 68.67344665527344 9.999992370605469 47.81964111328125 9.999992370605469 M 47.81964111328125 -7.62939453125e-06 C 74.22968292236328 -7.62939453125e-06 95.63927459716797 21.40957641601563 95.63927459716797 47.81964111328125 C 95.63927459716797 74.22968292236328 74.22968292236328 95.63927459716797 47.81964111328125 95.63927459716797 C 21.40957641601563 95.63927459716797 -7.62939453125e-06 74.22968292236328 -7.62939453125e-06 47.81964111328125 C -7.62939453125e-06 21.40957641601563 21.40957641601563 -7.62939453125e-06 47.81964111328125 -7.62939453125e-06 Z" stroke="none" fill="#fff"/></g></g><g transform="matrix(1, 0, 0, 1, -40, -40)" filter="url(#c)"><g transform="translate(40 40)" fill="#eee"><path d="M 47.81964111328125 90.63928985595703 C 42.03682327270508 90.63928985595703 36.42964172363281 89.50784301757813 31.15384101867676 87.27635955810547 C 26.05550765991211 85.11994171142578 21.4756908416748 82.03179168701172 17.54159164428711 78.09770965576172 C 13.6074914932251 74.16360473632813 10.51934146881104 69.58377075195313 8.362940788269043 64.48544311523438 C 6.131457805633545 59.20964050292969 5.000007629394531 53.60245895385742 5.000007629394531 47.81964111328125 C 5.000007629394531 42.03682327270508 6.131457805633545 36.42964172363281 8.362940788269043 31.15384101867676 C 10.51934146881104 26.05550765991211 13.6074914932251 21.4756908416748 17.54159164428711 17.54159164428711 C 21.4756908416748 13.6074914932251 26.05550765991211 10.51934146881104 31.15384101867676 8.362940788269043 C 36.42964172363281 6.131457805633545 42.03682327270508 5.000007629394531 47.81964111328125 5.000007629394531 C 53.60245895385742 5.000007629394531 59.20964050292969 6.131457805633545 64.48544311523438 8.362940788269043 C 69.58377075195313 10.51934146881104 74.16360473632813 13.6074914932251 78.09770965576172 17.54159164428711 C 82.03179168701172 21.4756908416748 85.11994171142578 26.05550765991211 87.27635955810547 31.15384101867676 C 89.50784301757813 36.42964172363281 90.63928985595703 42.03682327270508 90.63928985595703 47.81964111328125 C 90.63928985595703 53.60245895385742 89.50784301757813 59.20964050292969 87.27635955810547 64.48544311523438 C 85.11994171142578 69.58377075195313 82.03179168701172 74.16360473632813 78.09770965576172 78.09770965576172 C 74.16360473632813 82.03179168701172 69.58377075195313 85.11994171142578 64.48544311523438 87.27635955810547 C 59.20964050292969 89.50784301757813 53.60245895385742 90.63928985595703 47.81964111328125 90.63928985595703 Z" stroke="none"/><path d="M 47.81964111328125 9.999992370605469 C 26.96581268310547 9.999992370605469 9.999992370605469 26.96581268310547 9.999992370605469 47.81964111328125 C 9.999992370605469 68.67344665527344 26.96581268310547 85.63927459716797 47.81964111328125 85.63927459716797 C 68.67344665527344 85.63927459716797 85.63927459716797 68.67344665527344 85.63927459716797 47.81964111328125 C 85.63927459716797 26.96581268310547 68.67344665527344 9.999992370605469 47.81964111328125 9.999992370605469 M 47.81964111328125 -7.62939453125e-06 C 74.22968292236328 -7.62939453125e-06 95.63927459716797 21.40957641601563 95.63927459716797 47.81964111328125 C 95.63927459716797 74.22968292236328 74.22968292236328 95.63927459716797 47.81964111328125 95.63927459716797 C 21.40957641601563 95.63927459716797 -7.62939453125e-06 74.22968292236328 -7.62939453125e-06 47.81964111328125 C -7.62939453125e-06 21.40957641601563 21.40957641601563 -7.62939453125e-06 47.81964111328125 -7.62939453125e-06 Z" stroke="none" fill="#fff"/></g></g><g transform="matrix(1, 0, 0, 1, -40, -40)" filter="url(#e)"><path d="M47.82,0A47.82,47.82,0,1,1,0,47.82,47.82,47.82,0,0,1,47.82,0Z" transform="translate(40 40)" fill="#f8f8f8"/></g><g transform="matrix(1, 0, 0, 1, -40, -40)" filter="url(#h)"><path d="M47.82,0A47.82,47.82,0,1,1,0,47.82,47.82,47.82,0,0,1,47.82,0Z" transform="translate(40 40)" stroke="#fff" stroke-width="6" opacity="0.82" fill="url(#g)"/></g><path d="M409,260H396.207c-.187-1-.472-2.8-.873-4.207a19.9,19.9,0,0,0-3.37-6.786,15.842,15.842,0,0,0-5.592-4.469A16.882,16.882,0,0,0,378.584,243H365v8H353v9h12v9H353v9h12v8h13.584a17.043,17.043,0,0,0,7.38-1.516,16.2,16.2,0,0,0,5.643-4.375,19.772,19.772,0,0,0,3.6-6.8c.426-1.363.74-3.306.949-4.306H409m-19.64-4.653a21.576,21.576,0,0,1-.715,5.68,14.442,14.442,0,0,1-2.068,4.548,10.31,10.31,0,0,1-3.371,3.174A9.591,9.591,0,0,1,378.584,279H372V250h6.584a9.879,9.879,0,0,1,4.571,1.1,9.68,9.68,0,0,1,3.4,2.962,13.8,13.8,0,0,1,2.094,4.532A21.924,21.924,0,0,1,389.36,264.347Z" transform="translate(-330.88 -215.761)" fill="#fff"/></g></svg>