<?xml version="1.0" encoding="utf-8"?>
<!-- Generator: Adobe Illustrator 20.1.0, SVG Export Plug-In . SVG Version: 6.00 Build 0)  -->
<svg version="1.1" id="Capa_1" xmlns="http://www.w3.org/2000/svg" xmlns:xlink="http://www.w3.org/1999/xlink" x="0px" y="0px"
	 viewBox="0 0 1151.3 420.4" style="enable-background:new 0 0 1151.3 420.4;" xml:space="preserve">
<style type="text/css">
	.st0{fill:url(#SVGID_1_);}
	.st1{fill:url(#SVGID_2_);}
	.st2{fill:url(#SVGID_3_);}
	.st3{fill:url(#SVGID_4_);}
</style>
<g>
	<g>
		<linearGradient id="SVGID_1_" gradientUnits="userSpaceOnUse" x1="1123.936" y1="7.4996" x2="1123.936" y2="412.5238">
			<stop  offset="0" style="stop-color:#75c8ff;stop-opacity:0"/>
			<stop  offset="0.2115" style="stop-color:#75c8ff"/>
			<stop  offset="0.5038" style="stop-color:#75c8ff"/>
			<stop  offset="0.7423" style="stop-color:#75c8ff"/>
			<stop  offset="0.9885" style="stop-color:#75c8ff;stop-opacity:0"/>
		</linearGradient>
		<path class="st0" d="M1102.2,416.1l-2.8-1.2c30.5-71,46-146.6,46-224.5c0-61.6-9.8-122.1-29-180l2.8-0.9
			c19.4,58.2,29.2,119.1,29.2,181C1148.4,268.7,1132.9,344.7,1102.2,416.1z"/>
	</g>
	<g>
		<linearGradient id="SVGID_2_" gradientUnits="userSpaceOnUse" x1="29.4075" y1="414.7016" x2="23.9075" y2="13.2016">
			<stop  offset="0" style="stop-color:#75c8ff;stop-opacity:0"/>
			<stop  offset="0.2115" style="stop-color:#75c8ff"/>
			<stop  offset="0.5038" style="stop-color:#75c8ff"/>
			<stop  offset="0.7423" style="stop-color:#75c8ff"/>
			<stop  offset="0.9885" style="stop-color:#75c8ff;stop-opacity:0"/>
		</linearGradient>
		<path class="st1" d="M49.6,416.1C19,344.7,3.4,268.7,3.4,190.4c0-31.1,2.5-62.4,7.5-92.9c4.9-29.7,12.2-59.4,21.7-88.1l2.8,0.9
			C26,38.9,18.7,68.4,13.9,98c-5,30.3-7.5,61.4-7.5,92.4c0,77.9,15.5,153.5,46,224.5L49.6,416.1z"/>
	</g>
	<g>
		<linearGradient id="SVGID_3_" gradientUnits="userSpaceOnUse" x1="117.0635" y1="74.399" x2="117.0635" y2="357.8509">
			<stop  offset="0" style="stop-color:#75c8ff;stop-opacity:0"/>
			<stop  offset="0.2115" style="stop-color:#75c8ff"/>
			<stop  offset="0.5038" style="stop-color:#75c8ff"/>
			<stop  offset="0.7423" style="stop-color:#75c8ff"/>
			<stop  offset="0.9885" style="stop-color:#75c8ff;stop-opacity:0"/>
		</linearGradient>
		<path class="st2" d="M130.9,358.3c-20.2-53.6-30.5-110.1-30.5-167.9c0-40.1,5.1-80.1,15-119l2.9,0.7
			c-9.9,38.7-14.9,78.5-14.9,118.3c0,57.4,10.2,113.5,30.3,166.8L130.9,358.3z"/>
	</g>
	<g>
		<linearGradient id="SVGID_4_" gradientUnits="userSpaceOnUse" x1="1034.7725" y1="80.9959" x2="1034.7725" y2="349.4825">
			<stop  offset="0" style="stop-color:#75c8ff;stop-opacity:0"/>
			<stop  offset="0.2115" style="stop-color:#75c8ff"/>
			<stop  offset="0.5038" style="stop-color:#75c8ff"/>
			<stop  offset="0.7423" style="stop-color:#75c8ff"/>
			<stop  offset="0.9885" style="stop-color:#75c8ff;stop-opacity:0"/>
		</linearGradient>
		<path class="st3" d="M1020.9,358.3l-2.8-1.1c20.1-53.3,30.3-109.4,30.3-166.8c0-40.1-5-79.9-14.9-118.3l2.9-0.7
			c10,38.7,15,78.7,15,119C1051.4,248.2,1041.2,304.7,1020.9,358.3z"/>
	</g>
</g>
</svg>
