<svg xmlns="http://www.w3.org/2000/svg" xmlns:xlink="http://www.w3.org/1999/xlink" width="411.703" height="610.67" viewBox="0 0 411.703 610.67"><defs><linearGradient id="a" y1="0.5" x2="1" y2="0.5" gradientUnits="objectBoundingBox"><stop offset="0" stop-color="#a5cbfa"/><stop offset="0.363" stop-color="#a8cdfa"/><stop offset="0.667" stop-color="#b2d3fb"/><stop offset="0.948" stop-color="#c3dffe"/><stop offset="1" stop-color="#c8e2ff"/></linearGradient><linearGradient id="c" y1="0.5" x2="1" y2="0.5" gradientUnits="objectBoundingBox"><stop offset="0" stop-color="#27262a"/><stop offset="0.596" stop-color="#2f2e33"/><stop offset="1" stop-color="#37373d"/></linearGradient><linearGradient id="d" x1="0" y1="0.5" x2="1" y2="0.5" xlink:href="#c"/><linearGradient id="e" x1="0" y1="0.5" x2="1" y2="0.5" xlink:href="#c"/><linearGradient id="f" x1="0" y1="0.5" x2="1" y2="0.5" xlink:href="#c"/><linearGradient id="g" x1="0" y1="0.5" x2="1" y2="0.5" xlink:href="#c"/><linearGradient id="h" x1="0.001" y1="0.5" x2="1" y2="0.5" xlink:href="#c"/><linearGradient id="i" y1="0.5" x2="1" y2="0.5" gradientUnits="objectBoundingBox"><stop offset="0" stop-color="#c2c4c4"/><stop offset="1" stop-color="#ededed"/></linearGradient><linearGradient id="j" x1="0.452" y1="1.218" x2="0.525" y2="-0.232" gradientUnits="objectBoundingBox"><stop offset="0" stop-color="#dbdbdb"/><stop offset="1" stop-color="#f4f4f4"/></linearGradient><linearGradient id="k" x1="0.631" y1="0.128" x2="0.263" y2="0.781" gradientUnits="objectBoundingBox"><stop offset="0" stop-color="#ededed"/><stop offset="1" stop-color="#c2c4c4"/></linearGradient><radialGradient id="l" cx="0.74" cy="0.05" r="1.101" gradientTransform="translate(-0.061) scale(1.122 1)" gradientUnits="objectBoundingBox"><stop offset="0" stop-color="#fff"/><stop offset="1" stop-color="#dbdbdb"/></radialGradient><linearGradient id="m" x1="-3.787" y1="1.23" x2="3.452" y2="-0.101" xlink:href="#j"/><linearGradient id="n" x1="1.23" y1="0.17" x2="0.602" y2="0.456" gradientUnits="objectBoundingBox"><stop offset="0" stop-color="#dbdbdb"/><stop offset="0.086" stop-color="#dedede"/><stop offset="0.6" stop-color="#eee"/><stop offset="1" stop-color="#f4f4f4"/></linearGradient><linearGradient id="o" x1="0.189" y1="1.04" x2="0.707" y2="0.14" xlink:href="#j"/></defs><g transform="translate(-393 -3011.758)"><g transform="translate(-75.613 2520.712)"><path d="M526.1,455.172c-76.647,44.256-76.647,116.006.005,160.267s200.928,44.251,277.581,0,76.653-116.011,0-160.267S602.756,410.921,526.1,455.172Z" transform="translate(0.001 453.089)" fill="#6b99d1" opacity="0.15" style="mix-blend-mode:multiply;isolation:isolate"/><path d="M836.04,473.482a147.437,147.437,0,0,0-32.355-24.81c-76.653-44.261-200.928-44.261-277.586,0a147.2,147.2,0,0,0-32.345,24.81h-25.14V528.8h0c0,29,19.162,58,57.491,80.128,76.653,44.261,200.928,44.261,277.581,0,38.323-22.125,57.49-51.129,57.49-80.128V473.482Z" transform="translate(0 425.94)" fill="url(#a)"/><path d="M526.1,439.3c-76.647,44.256-76.647,116.011.005,160.267s200.928,44.251,277.581,0,76.653-116.006,0-160.267S602.756,395.047,526.1,439.3Z" transform="translate(0.001 386.864)" fill="#dceeff"/><g transform="translate(0.001 386.864)" fill="none" stroke-miterlimit="10"><path d="M526.1,439.3c-76.647,44.256-76.647,116.011.005,160.267s200.928,44.251,277.581,0,76.653-116.006,0-160.267S602.756,395.047,526.1,439.3Z" stroke="none"/><path d="M 664.8930053710938 407.1099243164063 C 652.3687744140625 407.1099243164063 639.7930908203125 407.8056640625 627.5154418945313 409.177978515625 C 615.1220703125 410.5631713867188 602.923828125 412.6500244140625 591.259521484375 415.3805541992188 C 579.3839111328125 418.16064453125 567.9403686523438 421.6367797851563 557.2469482421875 425.712646484375 C 546.2813720703125 429.89208984375 535.9695434570313 434.7542114257813 526.5980834960938 440.1639404296875 C 517.238037109375 445.5684204101563 508.8296508789063 451.5115356445313 501.6065063476563 457.8282470703125 C 494.5795288085938 463.9733276367188 488.58935546875 470.545166015625 483.8024291992188 477.3611450195313 C 479.1126708984375 484.0387573242188 475.5299682617188 491.0177612304688 473.15380859375 498.1043701171875 C 470.8042602539063 505.1115112304688 469.613037109375 512.2868041992188 469.6130981445313 519.4308471679688 C 469.6132202148438 526.5750732421875 470.8047485351563 533.75048828125 473.154541015625 540.7576904296875 C 475.5310668945313 547.8443603515625 479.1141357421875 554.823486328125 483.8042602539063 561.5010986328125 C 488.5916137695313 568.317138671875 494.582275390625 574.88916015625 501.6098022460938 581.0343017578125 C 508.8336181640625 587.35107421875 517.24267578125 593.2943115234375 526.6033325195313 598.6987915039063 C 535.9743041992188 604.1085205078125 546.2855224609375 608.970703125 557.2505493164063 613.150146484375 C 567.9435424804688 617.2259521484375 579.3865966796875 620.7021484375 591.2618408203125 623.482177734375 C 602.9257202148438 626.2127685546875 615.1236572265625 628.2996215820313 627.5167846679688 629.684814453125 C 639.7942504882813 631.05712890625 652.36962890625 631.7529296875 664.8936767578125 631.7529296875 C 677.417724609375 631.7529296875 689.9931030273438 631.05712890625 702.2705688476563 629.684814453125 C 714.6636962890625 628.2996215820313 726.8616333007813 626.2127685546875 738.5255737304688 623.482177734375 C 750.4008178710938 620.7021484375 761.8438720703125 617.2259521484375 772.5369262695313 613.150146484375 C 783.501953125 608.970703125 793.813232421875 604.1085205078125 803.1842041015625 598.6988525390625 C 812.544677734375 593.29443359375 820.9535522460938 587.3514404296875 828.1771850585938 581.034912109375 C 835.20458984375 574.8900146484375 841.1951904296875 568.3184814453125 845.982421875 561.5028076171875 C 850.6724853515625 554.825439453125 854.2555541992188 547.8467407226563 856.632080078125 540.760498046875 C 858.98193359375 533.753662109375 860.1734619140625 526.57861328125 860.173583984375 519.434814453125 C 860.173828125 512.2906494140625 858.9825439453125 505.1153564453125 856.6328125 498.1080322265625 C 854.2564697265625 491.0213623046875 850.673583984375 484.0421142578125 845.9834594726563 477.3642578125 C 841.1961669921875 470.5479736328125 835.2055053710938 463.9757080078125 828.1778564453125 457.830078125 C 820.9541015625 451.5128784179688 812.5449829101563 445.569091796875 803.1842041015625 440.1640014648438 C 793.813232421875 434.7542114257813 783.501953125 429.89208984375 772.5369262695313 425.712646484375 C 761.8438720703125 421.6367797851563 750.4008178710938 418.16064453125 738.5255126953125 415.3805541992188 C 726.8615112304688 412.6500244140625 714.6635131835938 410.5631713867188 702.270263671875 409.177978515625 C 689.9927978515625 407.8056640625 677.417236328125 407.1099243164063 664.8930053710938 407.1099243164063 M 664.8930053710938 406.1099243164063 C 715.125732421875 406.1099243164063 765.3577880859375 417.172607421875 803.6842041015625 439.2979736328125 C 880.3367919921875 483.5589599609375 880.3367919921875 555.3087158203125 803.6842041015625 599.5648193359375 C 765.3577880859375 621.690185546875 715.125732421875 632.7528686523438 664.8936767578125 632.7528686523438 C 614.6616821289063 632.7528686523438 564.4296875 621.690185546875 526.1033935546875 599.5648193359375 C 449.4505615234375 555.3087158203125 449.4505615234375 483.5540771484375 526.0980224609375 439.2979736328125 C 564.427001953125 417.172607421875 614.6603393554688 406.1099243164063 664.8930053710938 406.1099243164063 Z" stroke="none" fill="#fff"/></g><g transform="translate(502.354 760.595)"><path d="M779.4,455.639a122.316,122.316,0,0,0-26.79-20.548c-63.475-36.648-166.39-36.648-229.865,0a122.161,122.161,0,0,0-26.791,20.548H475.137v45.807h.005c0,24.018,15.867,48.031,47.6,66.355,63.475,36.648,166.39,36.648,229.865,0,31.74-18.324,47.607-42.337,47.607-66.355V455.639Z" transform="translate(-475.137 -367.492)" fill="url(#a)"/><path d="M522.743,427.336c-63.475,36.648-63.475,96.063,0,132.711s166.39,36.648,229.865,0,63.475-96.063,0-132.711S586.218,390.688,522.743,427.336Z" transform="translate(-475.136 -399.85)" fill="#dceeff"/><g transform="translate(-475.136 -399.85)" fill="none" stroke-miterlimit="10"><path d="M522.743,427.336c-63.475,36.648-63.475,96.063,0,132.711s166.39,36.648,229.865,0,63.475-96.063,0-132.711S586.218,390.688,522.743,427.336Z" stroke="none"/><path d="M 637.6755981445313 400.8497314453125 C 627.3106689453125 400.8497314453125 616.9033203125 401.4256591796875 606.7426147460938 402.5614624023438 C 596.4865112304688 403.7078857421875 586.39208984375 405.4349975585938 576.7398071289063 407.6948852539063 C 566.913330078125 409.9955444335938 557.44482421875 412.8721923828125 548.59716796875 416.2449951171875 C 539.5255737304688 419.7031860351563 530.9953002929688 423.7259521484375 523.2432861328125 428.2017211914063 C 515.5015869140625 432.6715087890625 508.54736328125 437.5863647460938 502.5739135742188 442.8097534179688 C 496.7649536132813 447.8892822265625 491.8134765625 453.3209228515625 487.8571166992188 458.9537353515625 C 483.98291015625 464.4696655273438 481.0233764648438 470.2338256835938 479.060791015625 476.0861511230469 C 477.1209106445313 481.870849609375 476.1372680664063 487.7939758300781 476.1372680664063 493.6910400390625 C 476.1372680664063 499.5881042480469 477.1209106445313 505.5112609863281 479.060791015625 511.2959289550781 C 481.0233764648438 517.1482543945313 483.98291015625 522.9124755859375 487.8571166992188 528.4283447265625 C 491.8134765625 534.0611572265625 496.7649536132813 539.4927978515625 502.5739135742188 544.5723876953125 C 508.54736328125 549.7957153320313 515.5015869140625 554.7105712890625 523.2432861328125 559.180419921875 C 530.9953002929688 563.6561279296875 539.5255737304688 567.678955078125 548.5972290039063 571.13720703125 C 557.44482421875 574.510009765625 566.913330078125 577.3866577148438 576.7398071289063 579.6873779296875 C 586.39208984375 581.9472045898438 596.4865112304688 583.6743774414063 606.7426147460938 584.82080078125 C 616.9033203125 585.9566040039063 627.3106689453125 586.5325317382813 637.6755981445313 586.5325317382813 C 648.0404663085938 586.5325317382813 658.4478149414063 585.9566040039063 668.6085205078125 584.82080078125 C 678.8646240234375 583.6743774414063 688.9590454101563 581.9472045898438 698.611328125 579.6873779296875 C 708.4378051757813 577.3866577148438 717.9063720703125 574.510009765625 726.7540283203125 571.13720703125 C 735.82568359375 567.678955078125 744.35595703125 563.6561279296875 752.1080322265625 559.180419921875 C 759.8497314453125 554.7105712890625 766.803955078125 549.7957153320313 772.77734375 544.5723876953125 C 778.5863037109375 539.4927978515625 783.5377807617188 534.0611572265625 787.494140625 528.4283447265625 C 791.368408203125 522.9124755859375 794.3279418945313 517.1482543945313 796.2904663085938 511.2959289550781 C 798.2303466796875 505.5112609863281 799.2139892578125 499.5881042480469 799.2139892578125 493.6910400390625 C 799.2139892578125 487.7939758300781 798.2303466796875 481.870849609375 796.2904663085938 476.0861511230469 C 794.3279418945313 470.2338256835938 791.368408203125 464.4696655273438 787.494140625 458.9537353515625 C 783.5377807617188 453.3209228515625 778.5863037109375 447.8892822265625 772.77734375 442.8097534179688 C 766.803955078125 437.5863647460938 759.8497314453125 432.6715087890625 752.1080322265625 428.2017211914063 C 744.35595703125 423.7259521484375 735.82568359375 419.7031860351563 726.7540283203125 416.2449951171875 C 717.9063720703125 412.8721923828125 708.4378051757813 409.9955444335938 698.611328125 407.6948852539063 C 688.9590454101563 405.4349975585938 678.8646240234375 403.7078857421875 668.6085205078125 402.5614624023438 C 658.4478149414063 401.4256591796875 648.0404663085938 400.8497314453125 637.6755981445313 400.8497314453125 M 637.675537109375 399.8497314453125 C 679.2730712890625 399.8497314453125 720.87060546875 409.01171875 752.6080322265625 427.335693359375 C 816.0826416015625 463.983642578125 816.0826416015625 523.3984375 752.6080322265625 560.04638671875 C 720.87060546875 578.3704833984375 679.2730712890625 587.5325317382813 637.675537109375 587.5325317382813 C 596.0780639648438 587.5325317382813 554.4805908203125 578.3704833984375 522.7432861328125 560.04638671875 C 459.2686767578125 523.3984375 459.2686767578125 463.983642578125 522.7432861328125 427.335693359375 C 554.4805908203125 409.01171875 596.0780639648438 399.8497314453125 637.675537109375 399.8497314453125 Z" stroke="none" fill="#fff"/></g></g></g><g transform="translate(182.605 2978.825)"><g transform="translate(326.572 164.437)"><g transform="translate(70.498 243.914)"><path d="M314.659,155.734l-24.895-14.373V129.643l24.895,14.373Z" transform="translate(-289.764 -113.811)" fill="#c2c4c4"/><path d="M323.338,141l-27.421,15.831V145.114l27.421-15.832Z" transform="translate(-271.023 -114.909)" fill="#d7d9d9"/><path d="M314.659,155.934l-24.895-14.373,27.421-15.832L342.08,140.1Z" transform="translate(-289.764 -125.729)" fill="#f4f4f4"/></g><g transform="translate(159.566 192.49)"><path d="M336.675,143.024,311.78,128.65V116.932l24.895,14.374Z" transform="translate(-311.78 -101.101)" fill="#c2c4c4"/><path d="M345.354,128.29l-27.421,15.831V132.4l27.421-15.832Z" transform="translate(-293.039 -102.198)" fill="#d7d9d9"/><path d="M336.675,143.223,311.78,128.85,339.2,113.018,364.1,127.392Z" transform="translate(-311.78 -113.018)" fill="#f4f4f4"/></g><g transform="translate(82.083 76.672)"><g transform="translate(88.74)"><g transform="translate(12.885 108.869)"><g style="isolation:isolate"><path d="M321.35,115.349v8.539l1.187-.69v-8.539Z" transform="translate(-306.778 -101.073)" fill="#48484d"/><path d="M330.644,119.4a17.607,17.607,0,0,0-2.812-4.426,12.98,12.98,0,0,0-3.18-2.674c-2.031-1.173-3.868-1.282-5.195-.514l-1.185.692c1.327-.773,3.164-.659,5.194.51a12.981,12.981,0,0,1,3.176,2.678,17.438,17.438,0,0,1,2.816,4.426,13.766,13.766,0,0,1,1.262,5.482l1.185-.692A13.765,13.765,0,0,0,330.644,119.4Z" transform="translate(-316.149 -111.301)" fill="#5f5f64"/><path d="M325.066,112.473c-4.038-2.326-7.306-.465-7.319,4.171v8.54L332.32,133.6v-8.536A16.009,16.009,0,0,0,325.066,112.473Z" transform="translate(-317.748 -110.782)" fill="#3b3b3f"/><path d="M321.531,112.21l-1.189.692a17.438,17.438,0,0,1,2.816,4.426l1.185-.692A17.606,17.606,0,0,0,321.531,112.21Z" transform="translate(-309.848 -108.532)" fill="url(#c)" style="mix-blend-mode:screen;isolation:isolate"/></g></g><g transform="translate(1.351)" style="isolation:isolate"><g transform="translate(16.118 15.016)"><path d="M318.891,92.842l8.158-4.741-.01,115.161L318.881,208Z" transform="translate(-318.881 -88.102)" fill="#48484d"/></g><path d="M336.015,93.37a19.378,19.378,0,0,0-3.123-4.907,14.337,14.337,0,0,0-3.52-2.969c-2.241-1.291-4.268-1.412-5.733-.558l-8.16,4.741c1.464-.854,3.5-.732,5.732.558a14.284,14.284,0,0,1,3.524,2.969,19.345,19.345,0,0,1,3.119,4.9,15.076,15.076,0,0,1,1.392,6.04l8.16-4.741A15.2,15.2,0,0,0,336.015,93.37Z" transform="translate(-313.121 -84.39)" fill="#5f5f64"/><path d="M317.768,90.138l8.156-4.741a19.379,19.379,0,0,1,3.123,4.907l-8.16,4.737a19.346,19.346,0,0,0-3.119-4.9Z" transform="translate(-306.153 -81.324)" fill="url(#d)" style="mix-blend-mode:screen;isolation:isolate"/><g transform="translate(0 4.74)"><path d="M322.988,86.667c4.45,2.569,8.051,8.8,8.034,13.913l-.008,115.161-16.118-9.3.012-115.162C314.921,86.161,318.538,84.1,322.988,86.667Z" transform="translate(-314.897 -85.562)" fill="#39393d"/></g></g><g transform="translate(0 116.307)" style="isolation:isolate"><path d="M318.165,117.188v8.538l1.187-.689V116.5Z" transform="translate(-303.592 -102.911)" fill="#48484d"/><path d="M327.459,121.245a17.492,17.492,0,0,0-2.812-4.426,12.82,12.82,0,0,0-3.18-2.674c-2.031-1.173-3.868-1.287-5.191-.514l-1.189.688c1.327-.769,3.164-.659,5.194.514a12.979,12.979,0,0,1,3.18,2.674,17.608,17.608,0,0,1,2.812,4.426,13.784,13.784,0,0,1,1.262,5.482l1.185-.688A13.7,13.7,0,0,0,327.459,121.245Z" transform="translate(-312.964 -113.139)" fill="#5f5f64"/><path d="M321.881,114.314c-4.037-2.33-7.306-.465-7.319,4.171v8.536l14.572,8.415V126.9A15.991,15.991,0,0,0,321.881,114.314Z" transform="translate(-314.563 -112.62)" fill="#3b3b3f"/><path d="M318.343,114.049l-1.185.688a17.608,17.608,0,0,1,2.812,4.426l1.185-.688A17.493,17.493,0,0,0,318.343,114.049Z" transform="translate(-306.66 -110.369)" fill="url(#e)" style="mix-blend-mode:screen;isolation:isolate"/></g></g><g transform="translate(0 51.235)"><g transform="translate(12.885 108.867)"><g style="isolation:isolate"><path d="M299.415,128.013v8.538l1.187-.69v-8.538Z" transform="translate(-284.844 -113.736)" fill="#48484d"/><path d="M308.709,132.069a17.509,17.509,0,0,0-2.816-4.426,12.981,12.981,0,0,0-3.176-2.674c-2.031-1.173-3.868-1.282-5.195-.514l-1.185.692c1.327-.773,3.164-.659,5.19.514a12.818,12.818,0,0,1,3.18,2.674,17.623,17.623,0,0,1,2.816,4.426,13.768,13.768,0,0,1,1.262,5.482l1.185-.688A13.785,13.785,0,0,0,308.709,132.069Z" transform="translate(-294.214 -123.965)" fill="#5f5f64"/><path d="M303.127,125.14c-4.033-2.33-7.3-.469-7.314,4.167v8.54l14.572,8.415v-8.54A15.989,15.989,0,0,0,303.127,125.14Z" transform="translate(-295.813 -123.444)" fill="#3b3b3f"/><path d="M299.592,124.874l-1.185.692a17.622,17.622,0,0,1,2.816,4.426l1.185-.692A17.51,17.51,0,0,0,299.592,124.874Z" transform="translate(-287.913 -121.196)" fill="url(#f)" style="mix-blend-mode:screen;isolation:isolate"/></g></g><g transform="translate(1.351)" style="isolation:isolate"><g transform="translate(16.118 15.015)"><path d="M296.956,105.507l8.157-4.741-.01,115.161-8.157,4.741Z" transform="translate(-296.946 -100.766)" fill="#48484d"/></g><path d="M314.08,106.033a19.386,19.386,0,0,0-3.123-4.907,14.179,14.179,0,0,0-3.524-2.965c-2.237-1.295-4.264-1.412-5.728-.562l-8.16,4.741c1.464-.854,3.5-.732,5.733.558a14.36,14.36,0,0,1,3.524,2.969,19.408,19.408,0,0,1,3.119,4.907,15.061,15.061,0,0,1,1.392,6.036l8.16-4.741A15.2,15.2,0,0,0,314.08,106.033Z" transform="translate(-291.186 -97.055)" fill="#5f5f64"/><path d="M295.833,102.8l8.156-4.741a19.385,19.385,0,0,1,3.123,4.907l-8.16,4.741a19.407,19.407,0,0,0-3.119-4.907Z" transform="translate(-284.218 -93.99)" fill="url(#g)" style="mix-blend-mode:screen;isolation:isolate"/><g transform="translate(0 4.74)"><path d="M301.053,99.329c4.45,2.569,8.051,8.8,8.034,13.913L309.08,228.4l-16.118-9.3.008-115.162C292.986,98.824,296.6,96.765,301.053,99.329Z" transform="translate(-292.962 -98.226)" fill="#39393d"/></g></g><g transform="translate(0 116.307)" style="isolation:isolate"><path d="M296.23,129.852v8.539l1.186-.69v-8.539Z" transform="translate(-281.658 -115.576)" fill="#48484d"/><path d="M305.524,133.908a17.494,17.494,0,0,0-2.812-4.426,12.909,12.909,0,0,0-3.18-2.674c-2.031-1.173-3.868-1.282-5.191-.514l-1.189.692c1.327-.773,3.164-.663,5.195.51a12.91,12.91,0,0,1,3.176,2.678,17.483,17.483,0,0,1,2.816,4.422,13.8,13.8,0,0,1,1.262,5.486l1.185-.692A13.7,13.7,0,0,0,305.524,133.908Z" transform="translate(-291.029 -125.804)" fill="#5f5f64"/><path d="M299.947,126.978c-4.038-2.33-7.306-.465-7.319,4.171v8.54L307.2,148.1v-8.536A16,16,0,0,0,299.947,126.978Z" transform="translate(-292.628 -125.286)" fill="#3b3b3f"/><path d="M296.411,126.713l-1.189.692a17.483,17.483,0,0,1,2.816,4.422l1.185-.688A17.492,17.492,0,0,0,296.411,126.713Z" transform="translate(-284.728 -123.035)" fill="url(#h)" style="mix-blend-mode:screen;isolation:isolate"/></g></g></g><g transform="translate(41.67 44.349)"><g style="isolation:isolate"><g transform="translate(63.919 55.318)"><path d="M298.438,196.422l143.029-82.957,6.926-23.391L305.364,173.031Z" transform="translate(-298.438 -90.074)" fill="#adadad"/></g><path d="M427.379,76.4,491.3,131.719,348.27,214.676l-63.92-55.318Z" transform="translate(-277.425 -76.4)" fill="#f4f4f4"/><path d="M485.7,129.618,424.789,76.894,285.2,157.853,346.1,210.578Z" transform="translate(-274.841 -74.899)" fill="#345e7a"/><g transform="translate(0 82.957)"><path d="M289.564,96.906,282.638,120.3l63.919,55.318,6.926-23.391Z" transform="translate(-282.638 -96.906)" fill="#c2c4c4"/></g></g></g><g style="isolation:isolate"><g transform="translate(140.689 121.756)"><path d="M307.114,189.7l153.449-89.43,1.387-4.735L308.5,184.964Z" transform="translate(-307.114 -95.534)" fill="#d7d9d9"/></g><path d="M426.131,65.438,566.819,187.194,413.37,276.623,272.681,154.868Z" transform="translate(-271.294 -65.438)" fill="#f4f4f4"/><path d="M554.49,182.572,420.431,66.523,274.549,151.557,408.6,267.605Z" transform="translate(-265.607 -62.133)" fill="#537a8c"/><g transform="translate(0 89.43)"><path d="M273.726,87.544l-1.387,4.735L413.027,214.034l1.387-4.735Z" transform="translate(-272.338 -87.544)" fill="#c2c4c4"/></g></g><path d="M323.7,167.375l9.616,8.2a2.089,2.089,0,0,1,.87,1.736,1.78,1.78,0,0,1-.971,1.347l-10.328,5.983a3.756,3.756,0,0,1-1.905.465,4.631,4.631,0,0,1-2.925-1.007l-9.616-8.2a2.03,2.03,0,0,1-.837-1.7,1.808,1.808,0,0,1,.991-1.375l10.324-5.987a3.793,3.793,0,0,1,1.885-.461A4.572,4.572,0,0,1,323.7,167.375Zm30.779-20.507a3.825,3.825,0,0,0-1.91.465l-10.328,5.983a1.785,1.785,0,0,0-.971,1.355,2.046,2.046,0,0,0,.846,1.711l9.62,8.192a4.589,4.589,0,0,0,2.925,1.024h0a3.773,3.773,0,0,0,1.877-.461l10.328-5.983a1.817,1.817,0,0,0,.983-1.371,2.079,2.079,0,0,0-.858-1.731l-9.616-8.192A4.561,4.561,0,0,0,354.477,146.868Zm-16.822,9.75a3.829,3.829,0,0,0-1.913.465l-10.324,5.983a1.814,1.814,0,0,0-.991,1.38,2.046,2.046,0,0,0,.837,1.7l9.616,8.192a4.6,4.6,0,0,0,2.925,1.011,3.8,3.8,0,0,0,1.905-.465l10.328-5.983a1.8,1.8,0,0,0,.983-1.371,2.072,2.072,0,0,0-.858-1.727l-9.616-8.2A4.571,4.571,0,0,0,337.656,156.618ZM446.8,163.471h0a3.77,3.77,0,0,0,1.893-.461l10.328-5.983a1.765,1.765,0,0,0,.963-1.343,2.122,2.122,0,0,0-.862-1.744l-9.62-8.2a4.569,4.569,0,0,0-2.889-1,3.771,3.771,0,0,0-1.885.461L434.4,151.188a1.828,1.828,0,0,0-.991,1.376,2.047,2.047,0,0,0,.838,1.7l9.62,8.2A4.612,4.612,0,0,0,446.8,163.471Zm-16.83,9.754a3.815,3.815,0,0,0,1.9-.465l10.324-5.983a1.765,1.765,0,0,0,.963-1.347,2.126,2.126,0,0,0-.858-1.74l-9.62-8.192a4.571,4.571,0,0,0-2.9-1,3.766,3.766,0,0,0-1.881.461l-10.328,5.987a1.817,1.817,0,0,0-1,1.371,2.054,2.054,0,0,0,.845,1.7l9.621,8.2A4.613,4.613,0,0,0,429.968,173.225ZM371.311,137.11a3.8,3.8,0,0,0-1.918.473l-10.328,5.983a1.791,1.791,0,0,0-.975,1.351,2.057,2.057,0,0,0,.85,1.711l9.62,8.2a4.633,4.633,0,0,0,2.929,1.015,3.745,3.745,0,0,0,1.873-.457l10.324-5.983a1.811,1.811,0,0,0,1-1.371,2.088,2.088,0,0,0-.866-1.732l-9.62-8.2A4.563,4.563,0,0,0,371.311,137.11Zm36,49.251a3.732,3.732,0,0,0,1.865-.449l10.328-5.987a1.806,1.806,0,0,0,.987-1.367,2.112,2.112,0,0,0-.858-1.732l-9.62-8.2a4.531,4.531,0,0,0-2.885-1,3.784,3.784,0,0,0-1.918.469l-10.328,5.983a1.788,1.788,0,0,0-.975,1.355,2.062,2.062,0,0,0,.85,1.711l9.616,8.2A4.628,4.628,0,0,0,407.313,186.361Zm-13.346-62.387a3.729,3.729,0,0,0-1.885.461l-10.324,5.983a1.813,1.813,0,0,0-1,1.376,2.044,2.044,0,0,0,.845,1.7l9.616,8.2a4.616,4.616,0,0,0,2.917,1.015,3.821,3.821,0,0,0,1.914-.469l10.328-5.983a1.78,1.78,0,0,0,.971-1.347,2.106,2.106,0,0,0-.87-1.74l-9.62-8.2A4.58,4.58,0,0,0,393.966,123.974Zm19.718-8.751a4.563,4.563,0,0,0-2.9-1,3.767,3.767,0,0,0-1.881.461l-10.328,5.987a1.812,1.812,0,0,0-.987,1.375,2.047,2.047,0,0,0,.833,1.7l9.62,8.2a4.594,4.594,0,0,0,2.925,1.011,3.82,3.82,0,0,0,1.906-.465L423.2,126.5a1.783,1.783,0,0,0,.971-1.343,2.1,2.1,0,0,0-.87-1.74Zm15.7,13.375a4.629,4.629,0,0,0-2.929-1.019,3.761,3.761,0,0,0-1.877.457l-10.324,5.987a1.8,1.8,0,0,0-.987,1.367,2.085,2.085,0,0,0,.858,1.732l9.62,8.2a4.561,4.561,0,0,0,2.893.987,3.824,3.824,0,0,0,1.91-.461l10.328-5.987a1.785,1.785,0,0,0,.975-1.347,2.064,2.064,0,0,0-.85-1.715Zm-40.1,90.629a3.828,3.828,0,0,0,1.914-.461l10.328-5.987a1.827,1.827,0,0,0,.991-1.376,2.052,2.052,0,0,0-.837-1.7l-9.62-8.2a4.594,4.594,0,0,0-2.925-1.011,3.82,3.82,0,0,0-1.905.465l-10.324,5.983a1.813,1.813,0,0,0-.987,1.371,2.09,2.09,0,0,0,.858,1.731l9.616,8.2A4.571,4.571,0,0,0,389.285,219.227Zm-16.826,9.754h0a3.773,3.773,0,0,0,1.91-.469l10.328-5.983a1.782,1.782,0,0,0,.975-1.351,2.057,2.057,0,0,0-.85-1.711l-9.616-8.2a4.618,4.618,0,0,0-2.925-1.02,3.75,3.75,0,0,0-1.877.457l-10.328,5.987a1.816,1.816,0,0,0-.987,1.367,2.09,2.09,0,0,0,.858,1.732l9.62,8.2A4.57,4.57,0,0,0,372.46,228.981ZM409.8,156.063a3.825,3.825,0,0,0,1.918-.469l10.328-5.987a1.791,1.791,0,0,0,.975-1.351,2.057,2.057,0,0,0-.85-1.711l-9.616-8.2a4.618,4.618,0,0,0-2.925-1.02,3.75,3.75,0,0,0-1.877.457l-10.328,5.983a1.811,1.811,0,0,0-1,1.371,2.1,2.1,0,0,0,.866,1.732l9.621,8.2A4.562,4.562,0,0,0,409.8,156.063Zm-39.659,4.159a3.777,3.777,0,0,0-1.905.465l-10.324,5.983a1.78,1.78,0,0,0-.971,1.347,2.1,2.1,0,0,0,.87,1.736l9.616,8.2a4.579,4.579,0,0,0,2.9,1,3.794,3.794,0,0,0,1.885-.461l10.324-5.987a1.828,1.828,0,0,0,.991-1.371,2.036,2.036,0,0,0-.837-1.7l-9.62-8.2A4.614,4.614,0,0,0,370.142,160.222Zm16.834-9.758a3.82,3.82,0,0,0-1.913.469l-10.324,5.987a1.78,1.78,0,0,0-.971,1.343,2.09,2.09,0,0,0,.87,1.74l9.616,8.2a4.568,4.568,0,0,0,2.9,1,3.765,3.765,0,0,0,1.881-.457l10.328-5.987a1.833,1.833,0,0,0,1-1.371,2.067,2.067,0,0,0-.846-1.707l-9.62-8.2A4.616,4.616,0,0,0,386.975,150.464ZM353.32,169.972a3.8,3.8,0,0,0-1.905.465l-10.328,5.983a1.8,1.8,0,0,0-.983,1.371,2.068,2.068,0,0,0,.854,1.727l9.62,8.2a4.55,4.55,0,0,0,2.893.991,3.772,3.772,0,0,0,1.909-.465l10.328-5.983a1.824,1.824,0,0,0,.991-1.38,2.045,2.045,0,0,0-.838-1.7l-9.62-8.2A4.591,4.591,0,0,0,353.32,169.972Zm-16.854,9.754a3.752,3.752,0,0,0-1.877.461l-10.328,5.983a1.816,1.816,0,0,0-.987,1.371,2.079,2.079,0,0,0,.858,1.727l9.62,8.2a4.55,4.55,0,0,0,2.893.991,3.84,3.84,0,0,0,1.914-.465L348.886,192a1.778,1.778,0,0,0,.975-1.347,2.079,2.079,0,0,0-.854-1.715l-9.616-8.192A4.59,4.59,0,0,0,336.466,179.726Zm161.961-19.989a2.128,2.128,0,0,0,.858,1.744l9.62,8.2a4.592,4.592,0,0,0,2.9,1,3.767,3.767,0,0,0,1.881-.461l10.328-5.983a1.817,1.817,0,0,0,1-1.375,2.033,2.033,0,0,0-.846-1.7l-9.616-8.2a4.637,4.637,0,0,0-2.929-1.011,3.8,3.8,0,0,0-1.9.465l-10.324,5.983A1.775,1.775,0,0,0,498.427,159.737Zm-124.79,46.132a3.791,3.791,0,0,0,1.893-.457l10.328-5.987a1.8,1.8,0,0,0,.975-1.363,2.106,2.106,0,0,0-.849-1.736l-9.616-8.2a4.584,4.584,0,0,0-2.9-.991,3.825,3.825,0,0,0-1.91.465l-10.328,5.988a1.812,1.812,0,0,0-.987,1.375,2.041,2.041,0,0,0,.837,1.7l9.616,8.2A4.644,4.644,0,0,0,373.637,205.868Zm-16.826,9.75a3.79,3.79,0,0,0,1.893-.457l10.324-5.983a1.772,1.772,0,0,0,.963-1.347,2.1,2.1,0,0,0-.858-1.74l-9.62-8.2a4.588,4.588,0,0,0-2.893-1,3.781,3.781,0,0,0-1.885.457l-10.328,5.987a1.812,1.812,0,0,0-.987,1.376,2.046,2.046,0,0,0,.837,1.7l9.616,8.2A4.644,4.644,0,0,0,356.812,215.618Zm49.328-6.145a3.771,3.771,0,0,0,1.885-.461l10.328-5.983a1.812,1.812,0,0,0,.987-1.376,2.041,2.041,0,0,0-.837-1.7l-9.616-8.2a4.625,4.625,0,0,0-2.925-1.011,3.808,3.808,0,0,0-1.905.465l-10.324,5.983a1.791,1.791,0,0,0-.975,1.347,2.112,2.112,0,0,0,.87,1.74l9.62,8.2A4.565,4.565,0,0,0,406.139,209.473Zm-15.648-13.358a3.677,3.677,0,0,0,1.861-.457l10.332-5.983a1.781,1.781,0,0,0,.971-1.367,2.088,2.088,0,0,0-.846-1.732l-9.62-8.2a4.551,4.551,0,0,0-2.889-.987,3.817,3.817,0,0,0-1.914.461l-10.328,5.987a1.785,1.785,0,0,0-.975,1.351,2.062,2.062,0,0,0,.85,1.711l9.616,8.2A4.642,4.642,0,0,0,390.491,196.115Zm19.888-110.4a4.58,4.58,0,0,0,2.9,1,3.767,3.767,0,0,0,1.881-.461l10.328-5.983a1.819,1.819,0,0,0,1-1.375,2.056,2.056,0,0,0-.845-1.707L416.019,69a4.605,4.605,0,0,0-2.929-1.011,3.819,3.819,0,0,0-1.9.461L400.864,74.44a1.759,1.759,0,0,0-.963,1.343,2.115,2.115,0,0,0,.862,1.74ZM376.7,105.239a4.57,4.57,0,0,0,2.893.987,3.8,3.8,0,0,0,1.914-.465l10.324-5.983a1.782,1.782,0,0,0,.975-1.351,2.048,2.048,0,0,0-.846-1.711l-9.62-8.2a4.651,4.651,0,0,0-2.937-1.011,3.691,3.691,0,0,0-1.865.453l-10.328,5.983a1.8,1.8,0,0,0-.975,1.367,2.094,2.094,0,0,0,.85,1.732Zm16.85-9.766a4.568,4.568,0,0,0,2.9,1,3.793,3.793,0,0,0,1.885-.461l10.324-5.983a1.793,1.793,0,0,0,.987-1.38,2.019,2.019,0,0,0-.833-1.7l-9.62-8.2a4.629,4.629,0,0,0-2.933-1,3.749,3.749,0,0,0-1.893.457L384.038,84.19a1.775,1.775,0,0,0-.963,1.343,2.115,2.115,0,0,0,.862,1.74Zm-33.675,19.516a4.566,4.566,0,0,0,2.888,1,3.806,3.806,0,0,0,1.918-.473l10.324-5.983a1.771,1.771,0,0,0,.975-1.355,2.035,2.035,0,0,0-.845-1.707l-9.62-8.2a4.631,4.631,0,0,0-2.937-1.015,3.733,3.733,0,0,0-1.865.453l-10.328,5.987a1.8,1.8,0,0,0-.983,1.363,2.108,2.108,0,0,0,.858,1.736Zm-56.339,32.648a4.573,4.573,0,0,0,2.893.991,3.829,3.829,0,0,0,1.914-.465l10.328-5.987a1.812,1.812,0,0,0,.987-1.376,2.046,2.046,0,0,0-.837-1.7l-9.616-8.2a4.644,4.644,0,0,0-2.937-1,3.791,3.791,0,0,0-1.893.457l-10.328,5.987a1.8,1.8,0,0,0-.975,1.367,2.1,2.1,0,0,0,.849,1.732Zm16.854-9.766a4.548,4.548,0,0,0,2.893,1,3.781,3.781,0,0,0,1.885-.457l10.328-5.987a1.812,1.812,0,0,0,.987-1.375,2.046,2.046,0,0,0-.837-1.7l-9.616-8.2a4.644,4.644,0,0,0-2.937-1,3.79,3.79,0,0,0-1.893.457l-10.328,5.983a1.776,1.776,0,0,0-.959,1.347,2.1,2.1,0,0,0,.858,1.74Zm16.826-9.75a4.58,4.58,0,0,0,2.893,1,3.792,3.792,0,0,0,1.885-.457l10.328-5.987a1.817,1.817,0,0,0,1-1.376,2.043,2.043,0,0,0-.845-1.7l-9.616-8.2a4.648,4.648,0,0,0-2.933-1.011,3.8,3.8,0,0,0-1.9.465L327.7,116.837a1.775,1.775,0,0,0-.963,1.343,2.127,2.127,0,0,0,.862,1.744Zm109.708-12.258a2.1,2.1,0,0,0,.87,1.74l9.62,8.2a4.588,4.588,0,0,0,2.893,1,3.772,3.772,0,0,0,1.885-.461l10.328-5.983a1.833,1.833,0,0,0,1-1.375,2.065,2.065,0,0,0-.846-1.7l-9.62-8.2a4.6,4.6,0,0,0-2.921-1.015,3.8,3.8,0,0,0-1.91.469L447.9,114.519A1.79,1.79,0,0,0,446.927,115.862Zm35.82,30.524a2.1,2.1,0,0,0,.87,1.74l9.62,8.2a4.563,4.563,0,0,0,2.9,1,3.762,3.762,0,0,0,1.877-.461l10.328-5.987a1.813,1.813,0,0,0,1-1.371,2.056,2.056,0,0,0-.845-1.707l-9.62-8.2a4.607,4.607,0,0,0-2.917-1.015,3.8,3.8,0,0,0-1.909.469l-10.328,5.987A1.773,1.773,0,0,0,482.746,146.386ZM467.074,133.04a2.052,2.052,0,0,0,.845,1.711l9.62,8.2a4.631,4.631,0,0,0,2.937,1.015,3.733,3.733,0,0,0,1.865-.453l10.328-5.987a1.8,1.8,0,0,0,.987-1.363,2.124,2.124,0,0,0-.862-1.736l-9.616-8.2a4.554,4.554,0,0,0-2.884-1,3.852,3.852,0,0,0-1.922.469l-10.324,5.987A1.775,1.775,0,0,0,467.074,133.04Zm27.9,47.386a3.725,3.725,0,0,0,1.881-.461l10.328-5.983a1.828,1.828,0,0,0,.991-1.376,2.057,2.057,0,0,0-.837-1.7l-9.621-8.2a4.632,4.632,0,0,0-2.933-1,3.8,3.8,0,0,0-1.9.457l-10.324,5.983a1.775,1.775,0,0,0-.963,1.347,2.121,2.121,0,0,0,.858,1.74l9.621,8.2A4.592,4.592,0,0,0,494.976,180.426Zm-79.391-91.26a2.037,2.037,0,0,0,.846,1.711l9.62,8.2a4.631,4.631,0,0,0,2.937,1.015,3.733,3.733,0,0,0,1.865-.453l10.328-5.987a1.8,1.8,0,0,0,.983-1.363,2.119,2.119,0,0,0-.858-1.736l-9.616-8.192a4.545,4.545,0,0,0-2.889-1,3.806,3.806,0,0,0-1.918.473l-10.328,5.983A1.786,1.786,0,0,0,415.586,89.166Zm15.669,13.354a2.047,2.047,0,0,0,.85,1.711l9.616,8.2a4.629,4.629,0,0,0,2.929,1.019,3.744,3.744,0,0,0,1.873-.457L456.851,107a1.811,1.811,0,0,0,1-1.367,2.1,2.1,0,0,0-.866-1.732l-9.62-8.2a4.566,4.566,0,0,0-2.884-1,3.826,3.826,0,0,0-1.918.473l-10.328,5.983A1.794,1.794,0,0,0,431.254,102.52Zm-144.54,54.866a4.593,4.593,0,0,0,2.9.991,3.813,3.813,0,0,0,1.909-.465l10.328-5.983a1.8,1.8,0,0,0,.975-1.355,2.062,2.062,0,0,0-.85-1.711l-9.616-8.2a4.662,4.662,0,0,0-2.941-1.011,3.716,3.716,0,0,0-1.861.449l-10.332,5.987a1.791,1.791,0,0,0-.971,1.367,2.078,2.078,0,0,0,.845,1.731Zm209.824,28.44a4.631,4.631,0,0,0-2.937-1.015,3.733,3.733,0,0,0-1.865.453l-10.324,5.983a1.815,1.815,0,0,0-.979,1.371,2.1,2.1,0,0,0,.85,1.732l9.62,8.2a4.633,4.633,0,0,0,2.933,1h0a3.822,3.822,0,0,0,1.893-.457l10.328-5.987a1.763,1.763,0,0,0,.959-1.343,2.11,2.11,0,0,0-.858-1.74ZM423.4,228.208a4.633,4.633,0,0,0-2.933-1,3.838,3.838,0,0,0-1.9.457l-10.324,5.987a1.8,1.8,0,0,0-.979,1.367,2.1,2.1,0,0,0,.85,1.732l9.62,8.2a4.621,4.621,0,0,0,2.937,1,3.79,3.79,0,0,0,1.893-.457l10.324-5.983a1.8,1.8,0,0,0,.975-1.367,2.083,2.083,0,0,0-.849-1.732Zm16.826-9.75a4.644,4.644,0,0,0-2.937-1,3.78,3.78,0,0,0-1.893.457L425.073,223.9a1.753,1.753,0,0,0-.963,1.343,2.121,2.121,0,0,0,.858,1.74l9.62,8.2a4.639,4.639,0,0,0,2.937,1.015,3.733,3.733,0,0,0,1.865-.453l10.328-5.983a1.8,1.8,0,0,0,.975-1.367,2.106,2.106,0,0,0-.85-1.736Zm16.826-9.75a4.636,4.636,0,0,0-2.929-1.011,3.8,3.8,0,0,0-1.9.465l-10.328,5.987a1.763,1.763,0,0,0-.959,1.339,2.112,2.112,0,0,0,.858,1.744l9.621,8.2a4.63,4.63,0,0,0,2.937,1.015,3.732,3.732,0,0,0,1.865-.453L466.544,220a1.8,1.8,0,0,0,.983-1.363,2.115,2.115,0,0,0-.854-1.736Zm82.781-34.2-9.62-8.2a4.622,4.622,0,0,0-2.925-1.007,3.751,3.751,0,0,0-1.9.465l-10.328,5.983a1.77,1.77,0,0,0-.959,1.343,2.1,2.1,0,0,0,.858,1.74l9.62,8.2a4.651,4.651,0,0,0,2.937,1.011,3.691,3.691,0,0,0,1.865-.453l10.324-5.983a1.8,1.8,0,0,0,.987-1.367A2.107,2.107,0,0,0,539.834,174.507Zm-26.442,1.554a4.623,4.623,0,0,0-2.937-1.007,3.781,3.781,0,0,0-1.893.461L498.233,181.5a1.77,1.77,0,0,0-.959,1.343,2.112,2.112,0,0,0,.858,1.744l9.62,8.2a4.636,4.636,0,0,0,2.937,1.011,3.681,3.681,0,0,0,1.865-.453l10.328-5.983a1.8,1.8,0,0,0,.975-1.367,2.1,2.1,0,0,0-.85-1.731Zm-35.269,14.123a3.814,3.814,0,0,0,1.91-.465l10.328-5.987a1.769,1.769,0,0,0,.975-1.347,2.064,2.064,0,0,0-.85-1.715l-9.616-8.2a4.64,4.64,0,0,0-2.937-1.015,3.722,3.722,0,0,0-1.865.453L465.739,177.9a1.787,1.787,0,0,0-.975,1.367,2.1,2.1,0,0,0,.846,1.732l9.62,8.2A4.564,4.564,0,0,0,478.122,190.184Zm1.59,5.393a4.628,4.628,0,0,0-2.933-1.015,3.749,3.749,0,0,0-1.869.453L464.586,201a1.813,1.813,0,0,0-.987,1.367,2.119,2.119,0,0,0,.858,1.736l9.616,8.2A4.634,4.634,0,0,0,477,213.3a3.8,3.8,0,0,0,1.9-.461l10.328-5.987a1.763,1.763,0,0,0,.959-1.343,2.1,2.1,0,0,0-.858-1.74Zm-73.16,42.4a4.636,4.636,0,0,0-2.937-1.011,3.722,3.722,0,0,0-1.865.453L391.421,243.4a1.787,1.787,0,0,0-.975,1.372,2.1,2.1,0,0,0,.846,1.727l9.62,8.2a4.609,4.609,0,0,0,2.933,1,3.78,3.78,0,0,0,1.893-.457l10.328-5.983a1.775,1.775,0,0,0,.963-1.343,2.122,2.122,0,0,0-.862-1.744ZM378.294,110.619a3.767,3.767,0,0,0-1.881.461l-10.328,5.983a1.82,1.82,0,0,0-1,1.375,2.054,2.054,0,0,0,.846,1.7l9.62,8.2a4.605,4.605,0,0,0,2.929,1.011,3.788,3.788,0,0,0,1.9-.465l10.328-5.983a1.766,1.766,0,0,0,.963-1.343,2.117,2.117,0,0,0-.862-1.744l-9.616-8.192A4.58,4.58,0,0,0,378.294,110.619ZM414.866,92.1a4.57,4.57,0,0,0-2.893-.987,3.8,3.8,0,0,0-1.914.465l-10.324,5.983a1.782,1.782,0,0,0-.975,1.351,2.053,2.053,0,0,0,.846,1.711l9.62,8.2a4.639,4.639,0,0,0,2.937,1.015,3.722,3.722,0,0,0,1.865-.453l10.328-5.983a1.809,1.809,0,0,0,.975-1.371,2.1,2.1,0,0,0-.849-1.732Zm-59.223,31.653a3.811,3.811,0,0,0-1.922.473L343.4,130.212a1.788,1.788,0,0,0-.975,1.355,2.045,2.045,0,0,0,.846,1.707l9.62,8.2a4.651,4.651,0,0,0,2.937,1.011,3.692,3.692,0,0,0,1.865-.453l10.328-5.983a1.8,1.8,0,0,0,.983-1.367,2.1,2.1,0,0,0-.858-1.732l-9.616-8.2A4.534,4.534,0,0,0,355.642,123.755Zm39.477-22.886a3.793,3.793,0,0,0-1.885.461l-10.324,5.983a1.809,1.809,0,0,0-.987,1.38,2.024,2.024,0,0,0,.833,1.7l9.616,8.2a4.631,4.631,0,0,0,2.937,1.007,3.782,3.782,0,0,0,1.893-.461l10.328-5.983a1.775,1.775,0,0,0,.963-1.343,2.127,2.127,0,0,0-.862-1.744l-9.616-8.2A4.568,4.568,0,0,0,395.119,100.869Zm-56.31,32.644a3.84,3.84,0,0,0-1.914.465l-10.324,5.987a1.781,1.781,0,0,0-.975,1.351,2.057,2.057,0,0,0,.85,1.711l9.616,8.2A4.639,4.639,0,0,0,339,152.24a3.682,3.682,0,0,0,1.865-.457l10.328-5.983a1.8,1.8,0,0,0,.975-1.367,2.1,2.1,0,0,0-.845-1.732l-9.62-8.2A4.565,4.565,0,0,0,338.809,133.513Zm-33.679,19.508a3.765,3.765,0,0,0-1.881.457l-10.328,5.987a1.812,1.812,0,0,0-.987,1.376,2.047,2.047,0,0,0,.834,1.7l9.62,8.2a4.632,4.632,0,0,0,2.933,1,3.8,3.8,0,0,0,1.9-.457l10.328-5.987a1.764,1.764,0,0,0,.959-1.343,2.11,2.11,0,0,0-.858-1.74l-9.62-8.2A4.56,4.56,0,0,0,305.129,153.021Zm16.854-9.758a3.813,3.813,0,0,0-1.909.465l-10.328,5.983a1.825,1.825,0,0,0-.987,1.38,2.037,2.037,0,0,0,.833,1.7l9.62,8.2a4.632,4.632,0,0,0,2.933,1,3.769,3.769,0,0,0,1.893-.457l10.328-5.987a1.787,1.787,0,0,0,.975-1.367,2.1,2.1,0,0,0-.845-1.732l-9.616-8.2A4.593,4.593,0,0,0,321.983,143.263ZM479.3,167.075a3.793,3.793,0,0,0,1.885-.461l10.328-5.983a1.819,1.819,0,0,0,.987-1.375,2.048,2.048,0,0,0-.837-1.707l-9.616-8.2a4.631,4.631,0,0,0-2.925-1.007,3.8,3.8,0,0,0-1.905.461l-10.328,5.987a1.78,1.78,0,0,0-.971,1.347,2.1,2.1,0,0,0,.87,1.736l9.62,8.2A4.572,4.572,0,0,0,479.3,167.075Zm-16.854,9.754a3.829,3.829,0,0,0,1.914-.465l10.328-5.983a1.791,1.791,0,0,0,.975-1.351,2.075,2.075,0,0,0-.85-1.715l-9.62-8.2a4.61,4.61,0,0,0-2.925-1.019,3.792,3.792,0,0,0-1.877.457l-10.328,5.987a1.8,1.8,0,0,0-.983,1.371,2.073,2.073,0,0,0,.858,1.727l9.616,8.2A4.573,4.573,0,0,0,462.45,176.829Zm-16.83,9.758a3.848,3.848,0,0,0,1.918-.473l10.328-5.983a1.791,1.791,0,0,0,.975-1.351,2.069,2.069,0,0,0-.849-1.715l-9.616-8.2a4.641,4.641,0,0,0-2.929-1.015,3.728,3.728,0,0,0-1.877.457l-10.328,5.983a1.831,1.831,0,0,0-1,1.367,2.1,2.1,0,0,0,.87,1.736l9.616,8.192A4.569,4.569,0,0,0,445.62,186.587Zm.611-67.755a4.631,4.631,0,0,0-2.925-1.007,3.8,3.8,0,0,0-1.905.461l-10.324,5.983a1.782,1.782,0,0,0-.975,1.347,2.112,2.112,0,0,0,.87,1.74l9.62,8.2a4.592,4.592,0,0,0,2.9,1,3.724,3.724,0,0,0,1.881-.461l10.328-5.983a1.812,1.812,0,0,0,.987-1.376,2.046,2.046,0,0,0-.837-1.7Zm-15.7-13.375a4.558,4.558,0,0,0-2.888-.987,3.817,3.817,0,0,0-1.914.461L415.4,110.919a1.781,1.781,0,0,0-.975,1.351,2.057,2.057,0,0,0,.85,1.711l9.62,8.2a4.61,4.61,0,0,0,2.925,1.019,3.745,3.745,0,0,0,1.873-.457l10.328-5.987a1.807,1.807,0,0,0,.987-1.367,2.085,2.085,0,0,0-.858-1.732Zm35.82,30.52a4.562,4.562,0,0,0-2.893-.987,3.8,3.8,0,0,0-1.914.465l-10.328,5.983a1.786,1.786,0,0,0-.971,1.351,2.07,2.07,0,0,0,.846,1.715l9.62,8.192a4.616,4.616,0,0,0,2.937,1.015,3.734,3.734,0,0,0,1.865-.453l10.328-5.983a1.8,1.8,0,0,0,.975-1.367,2.094,2.094,0,0,0-.846-1.732Zm-61.4,96.6a3.84,3.84,0,0,0,1.914-.465l10.328-5.983a1.812,1.812,0,0,0,.987-1.375,2.036,2.036,0,0,0-.837-1.7l-9.616-8.2a4.624,4.624,0,0,0-2.937-1.007,3.781,3.781,0,0,0-1.893.461l-10.328,5.983a1.8,1.8,0,0,0-.975,1.367,2.089,2.089,0,0,0,.845,1.731l9.621,8.2A4.549,4.549,0,0,0,404.958,232.581Zm56.331-32.644a3.851,3.851,0,0,0,1.922-.469l10.328-5.987a1.785,1.785,0,0,0,.975-1.351,2.084,2.084,0,0,0-.85-1.711l-9.62-8.2a4.639,4.639,0,0,0-2.937-1.015,3.733,3.733,0,0,0-1.865.453l-10.328,5.987a1.8,1.8,0,0,0-.987,1.363,2.119,2.119,0,0,0,.858,1.736l9.62,8.2A4.563,4.563,0,0,0,461.289,199.938Zm-22.651,13.136a3.765,3.765,0,0,0,1.881-.457l10.328-5.983a1.829,1.829,0,0,0,1-1.376A2.061,2.061,0,0,0,451,203.55l-9.62-8.192a4.605,4.605,0,0,0-2.929-1.011,3.8,3.8,0,0,0-1.9.461L426.226,200.8a1.763,1.763,0,0,0-.959,1.343,2.106,2.106,0,0,0,.854,1.74l9.621,8.2A4.568,4.568,0,0,0,438.637,213.074Zm-16.826,9.754a3.766,3.766,0,0,0,1.881-.461l10.328-5.983a1.831,1.831,0,0,0,.991-1.375,2.047,2.047,0,0,0-.838-1.7l-9.62-8.2a4.63,4.63,0,0,0-2.933-1,3.769,3.769,0,0,0-1.893.457L409.4,210.545a1.77,1.77,0,0,0-.959,1.343,2.122,2.122,0,0,0,.858,1.744l9.62,8.192A4.56,4.56,0,0,0,421.812,222.828Zm-33.679,19.5a3.8,3.8,0,0,0,1.914-.465l10.328-5.983a1.791,1.791,0,0,0,.975-1.351,2.075,2.075,0,0,0-.85-1.715l-9.62-8.192a4.639,4.639,0,0,0-2.937-1.015,3.733,3.733,0,0,0-1.865.453l-10.324,5.983a1.808,1.808,0,0,0-.979,1.371,2.092,2.092,0,0,0,.849,1.727l9.62,8.2A4.55,4.55,0,0,0,388.132,242.331Zm34.836-42.608a3.736,3.736,0,0,0,1.881-.461l10.328-5.983a1.823,1.823,0,0,0,1-1.375,2.043,2.043,0,0,0-.846-1.7l-9.616-8.2a4.607,4.607,0,0,0-2.921-1.019,3.817,3.817,0,0,0-1.91.473l-10.328,5.983a1.78,1.78,0,0,0-.971,1.347,2.1,2.1,0,0,0,.87,1.736l9.62,8.2A4.584,4.584,0,0,0,422.969,199.723Z" transform="translate(-260.439 -57.663)" fill="#b1dbe0" opacity="0.5"/><g transform="translate(85.918 249.434)"><path d="M298.9,132.062c0,1.7-1.193,2.383-2.662,1.537a5.884,5.884,0,0,1-2.658-4.608c0-1.7,1.189-2.383,2.658-1.533A5.875,5.875,0,0,1,298.9,132.062Z" transform="translate(-293.576 -127.094)" fill="#c2c4c4"/></g><g transform="translate(174.986 198.01)"><path d="M320.908,119.351c0,1.7-1.189,2.383-2.658,1.537a5.884,5.884,0,0,1-2.658-4.608c0-1.7,1.189-2.383,2.658-1.533A5.871,5.871,0,0,1,320.908,119.351Z" transform="translate(-315.592 -114.383)" fill="#c2c4c4"/></g></g><g transform="translate(254.531 32.932)"><path d="M296.195,129.735c8.022,4.628,8.022,12.137,0,16.769s-21.025,4.628-29.043,0-8.022-12.141,0-16.769S288.176,125.1,296.195,129.735Z" transform="translate(-234.419 251.308)" fill="#f4f4f4"/><g transform="translate(36.069 93.828)" style="isolation:isolate"><path d="M280.3,58.914a2.419,2.419,0,0,0-1.367-1.93,7.554,7.554,0,0,0-6.849-.069,2.449,2.449,0,0,0-1.469,1.97q-3.586,145.95-7.169,291.889c-.04,1.659,1.011,3.325,3.164,4.612,4.3,2.577,11.388,2.646,15.818.162,2.286-1.282,3.419-3,3.386-4.713Q283.061,204.866,280.3,58.914Z" transform="translate(-263.447 -56.115)" fill="url(#i)"/><ellipse cx="2.806" cy="4.844" rx="2.806" ry="4.844" transform="translate(7.161 5.611) rotate(-89.837)" fill="#c2c4c4"/></g><g transform="translate(25.184 64.756)" style="isolation:isolate"><path d="M281.626,50.581c-3.326-1.922-6.335-2.1-8.512-.833l-11.493,6.679c2.177-1.266,5.19-1.088,8.516.833l15.211,8.783,11.493-6.679Z" transform="translate(-258.122 -48.939)" fill="#f4f4f4"/><path d="M278.979,51.516,267.486,58.2a11.967,11.967,0,0,1,5.429,9.4l-.028,9.022a3.413,3.413,0,0,1-1.42,3.123l11.489-6.679a3.4,3.4,0,0,0,1.424-3.123l.024-9.022A11.969,11.969,0,0,0,278.979,51.516Z" transform="translate(-240.259 -41.091)" fill="#d7d9d9"/><path d="M278.979,51.516,267.486,58.2a11.967,11.967,0,0,1,5.429,9.4L284.4,60.914A11.969,11.969,0,0,0,278.979,51.516Z" transform="translate(-240.259 -41.091)" fill="#f4f4f4" opacity="0.6"/><path d="M287.983,61.016l-15.211-8.783c-6.619-3.823-11.991-.744-12.011,6.861l0,1.5a10.717,10.717,0,0,0,4.863,8.419l22.857,13.2c2.707,1.562,4.9.312,4.907-2.779l.028-9.022A11.967,11.967,0,0,0,287.983,61.016Z" transform="translate(-260.756 -43.911)" fill="#c2c4c4"/></g><path d="M269.178,63.829c0,3.208,2.253,4.507,5.033,2.9a11.106,11.106,0,0,0,5.029-8.71c0-3.208-2.249-4.511-5.029-2.9A11.117,11.117,0,0,0,269.178,63.829Z" transform="translate(-209.922 32.531)" fill="#c2c4c4"/><path d="M272.6,59.979l-10.98-6.339V52.151L272.6,58.49Zm0,1.982-10.98-6.339v1.489l10.98,6.335Zm4.632-1.469c-1.412-.817-2.557-.154-2.557,1.477a5.659,5.659,0,0,0,2.557,4.434c1.416.813,2.561.154,2.561-1.477A5.652,5.652,0,0,0,277.233,60.493Z" transform="translate(-232.938 25.6)" fill="#39393d" opacity="0.7"/><path d="M342.346,59.243a.314.314,0,0,1,.109.032l-.206-.121a.243.243,0,0,0-.109-.028l-68.18-2.747-1.2,3.245,11.194,9.5a2.5,2.5,0,0,0,.4.287l.206.121a2.666,2.666,0,0,1-.4-.287,2.817,2.817,0,0,0,2.2.631l54.377-5.49C341.731,63.819,343.289,59.3,342.346,59.243Z" transform="translate(-199.007 38.476)" fill="url(#j)"/><g transform="translate(59.74 87.275)"><path d="M285,59.14c.045.024.1.028.138.053l-7.614-4.369a3.445,3.445,0,0,0-3.483.38,10.63,10.63,0,0,0-4.741,8.411,3.363,3.363,0,0,0,1.428,3.054L278.1,70.9c.02.012.028.045.053.057l2.957,1.7a3.376,3.376,0,0,1-1.428-3.058,10.636,10.636,0,0,1,4.741-8.411,3.433,3.433,0,0,1,3.483-.376Z" transform="translate(-269.298 -54.505)" fill="url(#k)"/><path d="M280.09,56.306a3.433,3.433,0,0,0-3.483.376,10.636,10.636,0,0,0-4.741,8.411,3.376,3.376,0,0,0,1.428,3.058,6.894,6.894,0,0,0,3.374.9,6.751,6.751,0,0,0,3.491-.959,6.825,6.825,0,0,0-.069-11.789Z" transform="translate(-261.48 -50)" fill="url(#l)"/></g><path d="M281.877,96.916l-6.153-63.552a.288.288,0,0,0-.166-.255h.024l-.21-.121c-.3-.17-1,.069-1.736.494-1.056.607-2.16,1.594-2.16,2.27l.4,88.7.21.121,2.516-1.456,6.869-22.829A9.11,9.11,0,0,0,281.877,96.916Z" transform="translate(-202.924 -32.932)" fill="url(#m)"/><path d="M320.065,57.824l-17.493,13.8a11.867,11.867,0,0,0-2.5,2.759l-45.359,68.734c-.546.785.2,2.088,1.048,2.577l.21.121a.773.773,0,0,1-.093-.077,1.076,1.076,0,0,0,1.121.174.917.917,0,0,0,.263-.243l64.385-86.1-1.38-1.63Z" transform="translate(-254.531 42.877)" fill="url(#n)"/><path d="M277.909,57.955a2.488,2.488,0,1,1-4.3,2.346,2.488,2.488,0,1,1,4.3-2.346Z" transform="translate(-197.693 38.247)" opacity="0.6" fill="url(#o)" style="mix-blend-mode:screen;isolation:isolate"/></g></g></g></svg>