<svg xmlns="http://www.w3.org/2000/svg" width="539.902" height="581.463" viewBox="0 0 539.902 581.463"><g transform="translate(-90.075 -24.419)"><path d="M610.984,196.861,451.354,104.7c-5.261-3.037-13.788-3.037-19.049,0L94.02,300.032c-5.261,3.037-5.261,7.963,0,11l159.634,92.163c5.261,3.041,13.788,3.041,19.049,0L610.984,207.858C616.245,204.824,616.245,199.9,610.984,196.861Z" transform="translate(0 200.409)" fill="#6b99d1" opacity="0.15" style="mix-blend-mode:multiply;isolation:isolate"/><path d="M113.967,153.083l30.489-17.6c20.681-11.939,49.239-14.809,63.787-6.407s9.58,24.889-11.1,36.825l-30.489,17.6c-20.677,11.939-49.235,14.809-63.787,6.407S93.29,165.022,113.967,153.083Z" transform="translate(11.435 256.508)" fill="#6b99d1" opacity="0.15" style="mix-blend-mode:multiply;isolation:isolate"/><g transform="translate(110.488 24.419)"><g transform="translate(50.906 319.479)"><path d="M110.546,124.928c-1.356,3.962.414,7.285,1.542,10.654,2.2,6.56,1.685,15.366,1.685,15.366.443.767,3.216.989,3.983-.225,0,0-.353-14.477,3.494-13.328Z" transform="translate(-110.056 -85.659)" fill="#2d2979"/><path d="M142.346,175.743c-4.015-5.732-10.333-24.161-11.6-28.5-.535-1.838-1.974-5.525-1.877-9.105.168-6.389,2.127-24.207,2.127-24.207l-15.348.046.246,23.09c-.1,3.519-.218,4.5-1.246,7.1-.8,2.02-2.748,6.96-3.437,9.073-.75,2.705-2.07,5.6,2.331,9.127s7.035,5.572,9.9,9.123,2.666,8.277,7.3,12.464,13.374.978,15.048-.464C148.147,181.454,147.34,179.64,142.346,175.743Z" transform="translate(-109.104 -113.926)" fill="#ffa8a7"/><path d="M142.529,158.8c-9.744,2.4-11.7,1.11-14.513-9.873-2.156-8.424-4.065-14.449-7.77-17.686-4.437-3.876-4.761-6.1-4.772-8.838-.96-.075-1.446.642-2.07,2.777-1.424,4.872-3.234,5.029-3.3,8.509s2.284,6.51,4.879,8.206c4.28,2.8,5.454,4.044,7.438,8.159,2.338,4.844,1.874,10.219,3.455,14.738,6.789,5.258,14.059,8.706,25,3.637,2.084-5.543,3.844-8.077-7.7-14.445C145.285,156.42,146.22,157.887,142.529,158.8Z" transform="translate(-109.93 -92.165)" fill="#2d2979"/></g><g transform="translate(22.891 348.801)"><path d="M104.628,126.7c-.982,2.57-2.87,5.515-2.324,12.253s2.013,5.347,1.553,14.345c-.282,5.543-2.941,12.589-.032,16.8,5.065,5.033,18.389,4.351,21.166,1.663.714-2.349,1.392-4.683.989-6.846-.343-1.852-3.384-3.848-3.866-5.7-.364-1.506-.867-3.3-1.371-5.807-1.617-8.031-3.459-26.752-3.459-26.752Z" transform="translate(-102.207 -110.523)" fill="#2d2979"/><path d="M113.609,173.828a18.43,18.43,0,0,1-6.089-1.014,4.569,4.569,0,0,1-1.867-3.441c-.635-4.233.778-9.434-1.1-15.323s-2.274-9.412-1.3-15.73.182-15.894.182-15.894l12.949-.286s-.546,10.622-.475,16.14,1.139,22.826,2.277,28.508c.568,2.841,1.039,3.944.714,5.147C118.906,171.936,117.817,173.589,113.609,173.828Z" transform="translate(-100.837 -122.141)" fill="#ffa8a7"/></g><path d="M145.734,27.957c-2.905-4.669-25.1-7.738-32.4,11.068-2.77,7.128-2.338,25.349-4.658,36.807s-7.774,17.936-9.733,27.227,1.239,24.864,23.625,27.609,39.6-5.108,44.888-12.246,5.4-22.3-.093-30.45-9.662-14.77-9.53-25.378Z" transform="translate(-88.941 -24.419)" fill="#543354"/><path d="M223.259,108.871c-2.895.985-5.775.753-9.741,2.463a31.972,31.972,0,0,1-9.337,2.845c-3.512.464-14.081-2.995-23.372-7.7-10.958-5.547-22.583-16.18-26.984-21.466-9.487-11.4-19.906-28.719-23.126-35-3.862-7.538-8.823-8.77-13.531-8.209-5.532.657-7.935,3.93-2.252,14.113S132.16,84.285,143.2,95.732a103.318,103.318,0,0,0,28.158,21.027c9.819,5.022,18.407,7.867,29.1,10.562,2.913.735,4.9,2,10.287,4.058s12.114,3.13,16.876,2.331,6.353-1.838,6.61-2.87c.325-1.3-.721-2.013-2.938-1.9a29.267,29.267,0,0,1-10.483-.56s4.861-.007,7.767-.275a29,29,0,0,0,7.574-1.706c2.334-.917,3.2-4.54.964-4.479-2.252.061-3.955.714-8.266,1.042a28.68,28.68,0,0,1-6.853-.261,54.548,54.548,0,0,0,8.463-1.842c3.8-1.246,5.111-2.538,5.932-3.437s.657-3.127-2.109-2.681c-2.484.4-5.45,1.967-10.308,1.992-3.53.018-6.025-.457-5.561-.992s2.538-.4,5.265-1.827c2.6-1.36,4.347-4.251,3.469-5.654S226.157,107.886,223.259,108.871Z" transform="translate(-55.025 19.936)" fill="#ffa8a7"/><path d="M111.613,27.147s7.917-6.792,17.415,2.9c6.057,6.182,5.789,18.164,4.44,23.436S127.218,65.1,123.024,65.5,111.613,27.147,111.613,27.147Z" transform="translate(-55.149 -23.354)" fill="#543354"/><path d="M101.663,74.3c-4.558,19.82,1.649,51.17,2.684,67.424s2.538,35.161,2.538,35.161-4.911,17.165-4.629,30.375c.3,14.034,8.631,54.2,8.631,54.2a11.076,11.076,0,0,0,11.971-.036s1.977-34.776,3.837-50.884c1.942-16.819,2.57-29.086,4.272-38.92,2.124-12.257,6.953-77.686,6.953-77.686l.546,9.9,5.946,64.526s-4.255,9.3-4.23,16.772c.032,10.283,2.209,58.5,2.209,58.5a11.7,11.7,0,0,0,12.957.057s10.137-66.189,11.575-73.963c1.324-7.167,4.29-81.605-1.6-98.895Z" transform="translate(-84.958 94.857)" fill="#ffa8a7"/><path d="M112.088,37.269s1.1,18.625.757,19.992-7.31,2.691-9.266,4.319,10.13,20.516,16.272,23.311,25.167-4.347,26.488-13.81c1.217-8.713-5.447-15.487-8.01-17.85-1.713-.361-4.476-.025-5.25-.132l-.557-9.03C124.191,41.42,112.088,37.269,112.088,37.269Z" transform="translate(-76.336 8.598)" fill="#ffa8a7"/><path d="M114.7,47.732c-5.233.8-11.215,3.6-12.036,6.464-.96,3.341-3.03,19.1,1.5,31.085s9.826,20.1,12.432,25.267c0,0,19.824,6.128,38.077-5.2a121.108,121.108,0,0,0,1.91-16.626c16.84-14.7,2.445-32.82-11.832-46.9a29.853,29.853,0,0,0-5.14-.064s8.434,21.594,3.887,23.618C136.885,68.32,120.769,51.127,114.7,47.732Z" transform="translate(-81.505 19.936)" fill="#f5fbfb"/><path d="M126.694,51.382l-.45-7.313-5.932-1.924-14.5-4.876s.175,3.369.293,5.847c0,0,.61,6.368,11.136,11.3C119.1,55.287,126.116,55.933,126.694,51.382Z" transform="translate(-70.058 8.598)" fill="#f28f8f"/><path d="M148.145,45.428h0c-1.877-11.961-10.522-21-22.861-20.277a23.711,23.711,0,0,0-11.929,43.356s1.121,4.319,1.9,5.225c4.38,5.093,15.987,8.324,19.817,8.374,3.312.039,6.168-3.055,9.273-8.2C150.811,63.2,149.177,51.339,148.145,45.428Z" transform="translate(-77.604 -22.641)" fill="#ffa8a7"/><path d="M147.26,38.153c-5.272-10.815-15.741-14.581-25.813-12.607A22.869,22.869,0,0,0,103.826,42.2a23.759,23.759,0,0,0,9.53,26.481c-.264-.807-6.539-10.087-.136-12.164.1.892.253,4.2.589,6.289,0,0,3.145.214,3.03-3.712-.032-1.057-.228-2.848-.211-3.719.046-2.863-.071-4.794,1.567-7.242a13.52,13.52,0,0,0,1.456-3.612,11.1,11.1,0,0,1,6.785-7.346c3.141-1.057,7.46-.8,12.164,4.465C143.341,34.051,145.665,36.571,147.26,38.153Z" transform="translate(-77.604 -22.814)" fill="#543354"/><path d="M113,47.435s-.571,1.189-2.888,1.314c-4.326.225-9.419-7.8-5.946-13.274,2.17-3.419,7.1-2.234,8.7-.2Z" transform="translate(-77.246 -1.568)" fill="#ffa8a7"/><path d="M117.582,64.282c1.281,2.42,1.531,5.9-2.706,12.082s-12.846,18.732-14.4,29.015c3.409,3.612,8.267,11,23.008,13.292,21.2,3.287,36.989-6.071,41.964-11.518,0,0-.3-8.9-4.065-24.964-2.267-9.666-3.523-13.139-4.44-20.684S117.582,64.282,117.582,64.282Z" transform="translate(-83.768 63.783)" fill="#f5fbfb"/><path d="M119.409,63.7a152.44,152.44,0,0,1-8.93,13.82C106.12,83.567,97.658,96.816,99.7,119.96c1.335,15.12,8.78,79.617,8.78,79.617a115.9,115.9,0,0,0-4.954,24.839c-1.178,13.781,8.424,60.046,8.424,60.046s2.3,2.156,6.924,2.045,6.082-2.481,6.082-2.481,1.72-25.77,2.627-39.159,3.305-34.665,4-39.976,2.391-14.591,3.2-25,4.729-63.262,4.729-63.262l.546,9.9s.514,16.069,2.827,35.9,3.12,28.629,3.12,28.629-4,7.367-4.522,12.8,2.5,62.466,2.5,62.466,1.924,3.162,7.156,3.726c5.333.575,6.66-.985,6.66-.985s8.377-59.754,9.391-65.847,1.845-9.109,3-28.276.739-60.8-1.192-75.9-7.5-37.039-7.5-37.039a44.59,44.59,0,0,1-16.765,4.158C135,66.67,119.409,63.7,119.409,63.7Z" transform="translate(-86.556 72.17)" fill="#c4d9ff"/><path d="M132.751,72.312s-2.167,4.929-8.167,10.415a35.913,35.913,0,0,1-13.952,7.438l.546,9.9s.514,16.069,2.827,35.9c1.264,10.851,2.074,18.375,2.552,22.986h0l-.678-64.983C130.627,87.364,132.751,72.312,132.751,72.312Z" transform="translate(-57.669 98.634)" fill="#aacaf9"/><path d="M106.722,62.949s13.6,4.065,23.368,3.184c10.858-.974,14.263-3.955,15.537-5.968,0,0,1.635,3.866,1.474,6.593-4.715,5.475-10.744,6.75-19.453,6.728-9.916-.025-21.052-3.733-22.651-5.036A28.273,28.273,0,0,0,106.722,62.949Z" transform="translate(-72.145 67.425)" fill="#7fa8e6"/><path d="M133.954,171.316c-2.5-1.767-4-4.23-7.717-6.435a31.906,31.906,0,0,1-7.785-5.886c-2.441-2.566-5.85-13.153-7.5-23.432-1.949-12.129-.178-27.783,1.513-34.447,3.651-14.377,11.543-32.98,14.738-39.28,3.83-7.556,2.663-12.8-1.306-15.773-4.458-3.341-8.723-1.888-12.742,6.471-5.058,10.512-12.828,30.621-15.6,46.276a103.332,103.332,0,0,0-.475,35.14c1.71,10.9,4.451,19.521,8.556,29.754,1.117,2.791,1.256,5.14,2.759,10.712s4.587,11.636,8.031,15.023,5.218,4.058,6.2,3.662c1.246-.5,1.206-1.767-.189-3.491a29.4,29.4,0,0,1-5.7-8.816s2.863,3.93,4.783,6.125a28.934,28.934,0,0,0,5.832,5.126c2.117,1.353,5.55-.079,4.19-1.852s-2.9-2.777-5.7-6.075a28.832,28.832,0,0,1-3.812-5.7,54.2,54.2,0,0,0,6.46,5.761c3.241,2.349,5.058,2.648,6.268,2.781s2.913-1.3.932-3.28c-1.785-1.774-4.8-3.255-7.67-7.171-2.088-2.845-3.17-5.143-2.466-5.079s1.817,1.817,4.572,3.184c2.634,1.306,6,1.021,6.614-.514S136.453,173.079,133.954,171.316Z" transform="translate(-95.794 26.91)" fill="#ffa8a7"/></g><g transform="translate(90.075 71.184)"><g transform="translate(434.093)" opacity="0.9"><path d="M217.308,92.607l94.08-54.321C314.489,36.5,317,37.95,317,41.53v68.1a12.4,12.4,0,0,1-5.615,9.719l-94.08,54.318c-3.1,1.792-5.615.339-5.615-3.241v-68.1A12.4,12.4,0,0,1,217.308,92.607Z" transform="translate(-211.693 -37.521)" fill="#6cebff" opacity="0.8"/><path d="M217.308,92.607l94.08-54.321C314.489,36.5,317,37.95,317,41.53v68.1a12.4,12.4,0,0,1-5.615,9.719l-94.08,54.318c-3.1,1.792-5.615.339-5.615-3.241v-68.1A12.4,12.4,0,0,1,217.308,92.607Z" transform="translate(-211.693 -37.521)" fill="none" stroke="#e9fffb" stroke-miterlimit="10" stroke-width="1"/><path d="M216.956,71.983l38.267-22.09c1.553-.9,2.809-.171,2.809,1.62v.157a6.208,6.208,0,0,1-2.809,4.861L216.96,78.622c-1.553.9-2.809.168-2.809-1.62v-.157A6.209,6.209,0,0,1,216.956,71.983Z" transform="translate(-205.378 -6.72)" fill="#0b3fa5" opacity="0.8"/><path d="M230.732,61.831,263.709,42.8c1.549-.9,2.806-.171,2.806,1.617v.161a6.2,6.2,0,0,1-2.806,4.861L230.732,68.473c-1.549.892-2.805.168-2.805-1.62V66.7A6.216,6.216,0,0,1,230.732,61.831Z" transform="translate(-169.983 -24.955)" fill="#0b3fa5" opacity="0.8"/><g transform="translate(8.773 48.687)" opacity="0.8"><g transform="translate(0 25.331)"><path d="M216.956,80.734,255.223,58.64c1.553-.892,2.809-.168,2.809,1.62v.161a6.213,6.213,0,0,1-2.809,4.861L216.96,87.373c-1.553.9-2.809.168-2.809-1.62V85.6A6.209,6.209,0,0,1,216.956,80.734Z" transform="translate(-214.151 -58.258)" fill="#0b3fa5"/></g><g transform="translate(49.171)"><path d="M230.732,70.582l32.977-19.039c1.549-.892,2.806-.168,2.806,1.62v.161a6.2,6.2,0,0,1-2.806,4.858L230.732,77.22c-1.549.9-2.805.171-2.805-1.62v-.157A6.209,6.209,0,0,1,230.732,70.582Z" transform="translate(-227.927 -51.161)" fill="#0b3fa5"/></g></g><g transform="translate(8.773 33.068)" opacity="0.8"><g transform="translate(0 35.467)"><path d="M216.956,69.065,237.676,57.1c1.549-.892,2.805-.168,2.805,1.62v.161a6.2,6.2,0,0,1-2.805,4.861L216.96,75.7c-1.553.9-2.809.168-2.809-1.62v-.157A6.209,6.209,0,0,1,216.956,69.065Z" transform="translate(-214.151 -56.722)" fill="#0b3fa5"/></g><g transform="translate(30.021 19.89)"><path d="M225.364,62.949l17.572-10.2c1.549-.9,2.8-.175,2.8,1.613v.161a6.224,6.224,0,0,1-2.8,4.869l-17.572,10.2c-1.546.9-2.8.175-2.8-1.617v-.153A6.223,6.223,0,0,1,225.364,62.949Z" transform="translate(-222.562 -52.358)" fill="#0b3fa5"/></g><g transform="translate(57.544)"><path d="M233.082,61.3l24.6-14.131c1.553-.892,2.809-.164,2.809,1.624v.161a6.18,6.18,0,0,1-2.809,4.854l-24.6,14.127c-1.549.892-2.809.164-2.809-1.624v-.157A6.184,6.184,0,0,1,233.082,61.3Z" transform="translate(-230.273 -46.785)" fill="#0b3fa5"/></g></g><g transform="translate(8.773 64.471)" opacity="0.8"><g transform="translate(0 28.197)"><path d="M216.96,83.1l33.377-19.235c1.549-.892,2.805-.168,2.805,1.62v.161a6.2,6.2,0,0,1-2.805,4.861L216.96,89.735c-1.549.9-2.809.168-2.809-1.62v-.161A6.2,6.2,0,0,1,216.96,83.1Z" transform="translate(-214.151 -63.483)" fill="#0b3fa5"/></g><g transform="translate(42.682 12.621)"><path d="M228.911,69.709l17.572-10.2c1.549-.9,2.8-.175,2.8,1.617v.157a6.218,6.218,0,0,1-2.8,4.869l-17.572,10.2c-1.546.9-2.8.175-2.8-1.613v-.157A6.228,6.228,0,0,1,228.911,69.709Z" transform="translate(-226.109 -59.119)" fill="#0b3fa5"/></g><g transform="translate(70.208)"><path d="M236.63,62.825l11.932-6.86c1.553-.892,2.809-.164,2.809,1.624v.161a6.185,6.185,0,0,1-2.809,4.854l-11.932,6.86c-1.553.892-2.809.164-2.809-1.628v-.157A6.185,6.185,0,0,1,236.63,62.825Z" transform="translate(-233.821 -55.583)" fill="#0b3fa5"/></g></g></g><g transform="translate(0 116.792)"><g transform="translate(0 70.108)"><path d="M614.913,194.7l.011-.007V173.179l-24.2,10.29L443.679,98.609c-5.261-3.038-13.792-3.038-19.049,0L145.949,259.524,90.075,276.432v21.576l.007,0c.018,1.974,1.328,3.944,3.937,5.45l159.634,92.167c5.261,3.034,13.788,3.034,19.049,0L610.983,200.291C613.656,198.749,614.956,196.722,614.913,194.7Z" transform="translate(-90.073 -73.319)" fill="#c8e2ff"/><path d="M90.075,169.373V190.95l.007,0c.018,1.974,1.328,3.944,3.937,5.45L253.653,288.57a19.492,19.492,0,0,0,9.526,2.274V192.5L171.005,138l-25.057,14.466Z" transform="translate(-90.073 33.739)" fill="#a5cbfa"/><path d="M576.889,181.853l-39.13-22.583a14.033,14.033,0,0,0-12.7,0l-2.192,1.264a14.019,14.019,0,0,1-12.7,0L463.31,133.481c-3.509-2.024-3.509-5.308,0-7.331l2.188-1.267c3.509-2.024,3.509-5.308,0-7.331L425.853,94.687a14.033,14.033,0,0,0-12.7,0L98.416,276.507c-3.505,2.027-3.505,5.308,0,7.331L249.462,371a14.041,14.041,0,0,0,12.7,0L576.889,189.18C580.394,187.16,580.394,183.876,576.889,181.853Z" transform="translate(-75.396 -81.444)" fill="#031f60"/><path d="M217.834,110.661l51.99,29.822-7.158,13.256-44.832-25.883Z" transform="translate(238.179 -36.5)" fill="#1e3779"/><path d="M186.481,109.762V92.567l52.348,30.2-14.891,8.6Z" transform="translate(157.624 -82.989)" fill="#1e3779"/><path d="M259.347,364.657,572.792,183.579l-37.849-21.841a14.011,14.011,0,0,0-12.7,0L520.056,163a14.019,14.019,0,0,1-12.7,0L460.5,135.95c-3.509-2.027-3.509-5.308,0-7.335l1.281-.739-1.281-.739c-3.509-2.024-3.509-5.308,0-7.331l.91-.525L423.039,97.156a14.033,14.033,0,0,0-12.7,0L96.883,278.234l149.764,86.424A14.041,14.041,0,0,0,259.347,364.657Z" transform="translate(-72.581 -75.1)" fill="#344593"/><path d="M412.511,161.738a14.011,14.011,0,0,0-12.7,0L397.624,163a14.019,14.019,0,0,1-12.7,0L338.063,135.95c-3.509-2.027-3.509-5.308,0-7.335l1.281-.739-1.281-.739c-3.509-2.024-3.509-5.308,0-7.331l.91-.525L300.606,97.155a12.961,12.961,0,0,0-6.35-1.517s20.93,52.815,3.07,108.3c-16.662,51.755-113.754,132.714-152.791,156.321L450.36,183.579Z" transform="translate(49.851 -75.099)" fill="#2b3d89"/><path d="M198.018,103.435v8.816c.025,1.481.985,2.677,2.631,3.666l46.861,27.052a12.994,12.994,0,0,0,6.71,1.513l0-11.311Z" transform="translate(187.265 -55.066)" fill="#1e3779"/><path d="M610.984,184.328,451.354,92.162c-5.261-3.037-13.788-3.037-19.049,0L94.02,287.5c-5.261,3.037-5.261,7.963,0,11l159.634,92.163c5.261,3.037,13.788,3.037,19.049,0L610.984,195.325C616.245,192.288,616.245,187.362,610.984,184.328ZM591.567,197.62,276.84,379.441a14.041,14.041,0,0,1-12.7,0L113.095,292.278c-3.505-2.024-3.505-5.3,0-7.331l314.741-181.82a14.033,14.033,0,0,1,12.7,0l39.644,22.865c3.509,2.024,3.509,5.308,0,7.331l-2.188,1.267c-3.509,2.024-3.509,5.308,0,7.331l46.861,27.052a14.019,14.019,0,0,0,12.7,0l2.192-1.264a14.034,14.034,0,0,1,12.7,0l39.13,22.583C595.072,192.316,595.072,195.6,591.567,197.62Z" transform="translate(-90.074 -89.884)" fill="#dceeff"/><g transform="translate(35.183 12.051)" opacity="0.4"><path d="M137.916,138.033l27.259-15.747h-14.6l-27.272,15.747Z" transform="translate(-39.875 -18.683)" fill="#fafdff"/><path d="M166.616,132.77l54.518-31.494H206.595L152.052,132.77Z" transform="translate(33.981 -72.665)" fill="#fafdff"/><path d="M187.294,93.26a11.469,11.469,0,0,1,3.451,1.192l17.275,9.965h29.793L218.493,93.26Z" transform="translate(124.529 -93.26)" fill="#fafdff"/><path d="M175.8,104.418h14.527l17.247-9.965a11.338,11.338,0,0,1,3.452-1.192h-15.9Z" transform="translate(95.003 -93.26)" fill="#fafdff"/><path d="M205.321,101.276a5.062,5.062,0,0,1-2.484,2.777l-2.188,1.267c-3.509,2.024-3.509,5.308,0,7.331l34.851,20.12h59.543l-54.55-31.5Z" transform="translate(152.082 -72.664)" fill="#fafdff"/><path d="M115.777,162.173,170.3,130.679H155.673l-54.542,31.494Z" transform="translate(-96.849 2.88)" fill="#fafdff"/><path d="M198.934,193.269l-54.578-31.494H114.468l54.55,31.494Z" transform="translate(-62.582 82.776)" fill="#fafdff"/><path d="M246.358,122.286,219.1,138.033h15.419l27.27-15.747Z" transform="translate(206.25 -18.683)" fill="#fafdff"/><path d="M251.454,130.679l-54.518,31.494h15.382l54.542-31.494Z" transform="translate(149.302 2.88)" fill="#fafdff"/><path d="M157.084,169.129l-27.289-15.746H99.932l27.277,15.746Z" transform="translate(-99.932 61.212)" fill="#fafdff"/><path d="M192.53,153.382l-27.258,15.746H180.6l27.27-15.746Z" transform="translate(67.949 61.212)" fill="#fafdff"/><path d="M197.625,161.775l-54.517,31.494H158.4l54.542-31.494Z" transform="translate(11.001 82.776)" fill="#fafdff"/></g><path d="M210.226,103.984,232.959,117.1c1.952,1.128,2.295,2.752.774,3.634s-4.344.678-6.293-.446L204.7,107.172c-1.949-1.128-2.292-2.752-.771-3.634S208.277,102.86,210.226,103.984Z" transform="translate(200.025 -56.212)" fill="#031f60"/><path d="M110.213,163.53c0-2.456,5.179-1.46,11.565,2.227s11.561,8.67,11.561,11.129l0,4.447-23.129-13.349Z" transform="translate(-38.333 95.877)" fill="#7aa3e5"/><g transform="translate(101.97 271.375)"><g transform="translate(0.186 7.522)"><path d="M118.7,169.066a3.245,3.245,0,0,0,1.463,2.531c.807.468,1.46.089,1.46-.842a3.227,3.227,0,0,0-1.463-2.534C119.348,167.756,118.7,168.131,118.7,169.066Z" transform="translate(-118.695 -168.021)" fill="#7aa3e5"/><path d="M120.717,170.231a3.233,3.233,0,0,0,1.46,2.534c.807.468,1.46.089,1.46-.842a3.221,3.221,0,0,0-1.463-2.534C121.367,168.921,120.713,169.3,120.717,170.231Z" transform="translate(-113.5 -165.024)" fill="#7aa3e5"/><path d="M122.738,171.4a3.226,3.226,0,0,0,1.46,2.531c.807.471,1.46.093,1.46-.842a3.226,3.226,0,0,0-1.463-2.531C123.388,170.088,122.734,170.466,122.738,171.4Z" transform="translate(-108.307 -162.026)" fill="#7aa3e5"/><path d="M124.759,172.565a3.226,3.226,0,0,0,1.46,2.531c.807.468,1.46.089,1.46-.842a3.22,3.22,0,0,0-1.463-2.531C125.412,171.255,124.755,171.633,124.759,172.565Z" transform="translate(-103.115 -159.027)" fill="#7aa3e5"/><path d="M126.78,173.732a3.226,3.226,0,0,0,1.46,2.531c.807.468,1.46.089,1.46-.842a3.221,3.221,0,0,0-1.463-2.531C127.43,172.422,126.78,172.8,126.78,173.732Z" transform="translate(-97.922 -156.029)" fill="#7aa3e5"/><path d="M128.8,174.9a3.226,3.226,0,0,0,1.46,2.531c.807.468,1.46.089,1.46-.842a3.236,3.236,0,0,0-1.463-2.534C129.451,173.59,128.8,173.968,128.8,174.9Z" transform="translate(-92.73 -153.031)" fill="#7aa3e5"/><path d="M130.822,176.067a3.232,3.232,0,0,0,1.46,2.531c.807.468,1.46.089,1.46-.842a3.221,3.221,0,0,0-1.463-2.534C131.475,174.757,130.818,175.132,130.822,176.067Z" transform="translate(-87.537 -150.034)" fill="#7aa3e5"/></g><path d="M118.643,166.96a3.251,3.251,0,0,0,1.463,2.531c.807.464,1.46.089,1.46-.846a3.236,3.236,0,0,0-1.463-2.531C119.3,165.647,118.643,166.025,118.643,166.96Z" transform="translate(-118.643 -165.914)" fill="#7aa3e5"/><path d="M120.664,168.124a3.251,3.251,0,0,0,1.463,2.534c.807.464,1.46.086,1.46-.846a3.23,3.23,0,0,0-1.463-2.531C121.317,166.814,120.664,167.192,120.664,168.124Z" transform="translate(-113.45 -162.915)" fill="#7aa3e5"/><path d="M122.685,169.291a3.23,3.23,0,0,0,1.463,2.531c.8.468,1.46.089,1.46-.842a3.23,3.23,0,0,0-1.463-2.531C123.338,167.981,122.685,168.359,122.685,169.291Z" transform="translate(-108.258 -159.917)" fill="#7aa3e5"/><path d="M124.706,170.459a3.242,3.242,0,0,0,1.463,2.534c.807.464,1.46.086,1.46-.846a3.242,3.242,0,0,0-1.46-2.534C125.359,169.149,124.706,169.527,124.706,170.459Z" transform="translate(-103.065 -156.92)" fill="#7aa3e5"/><path d="M126.727,171.622a3.231,3.231,0,0,0,1.463,2.534c.807.468,1.46.089,1.46-.842a3.233,3.233,0,0,0-1.46-2.534C127.38,170.316,126.727,170.694,126.727,171.622Z" transform="translate(-97.873 -153.921)" fill="#7aa3e5"/><path d="M128.748,172.794a3.236,3.236,0,0,0,1.463,2.531c.807.468,1.46.089,1.46-.842a3.232,3.232,0,0,0-1.46-2.534C129.4,171.481,128.748,171.859,128.748,172.794Z" transform="translate(-92.68 -150.925)" fill="#7aa3e5"/><path d="M130.769,173.961a3.241,3.241,0,0,0,1.463,2.531c.807.464,1.46.089,1.46-.846a3.232,3.232,0,0,0-1.46-2.531C131.426,172.648,130.769,173.026,130.769,173.961Z" transform="translate(-87.488 -147.926)" fill="#7aa3e5"/></g><g transform="translate(17.124 222.368)"><g transform="translate(0.186 7.521)"><path d="M94.924,155.334a3.242,3.242,0,0,0,1.463,2.534c.807.468,1.46.089,1.46-.846a3.22,3.22,0,0,0-1.463-2.531C95.577,154.024,94.924,154.4,94.924,155.334Z" transform="translate(-94.924 -154.291)" fill="#7aa3e5"/><path d="M96.945,156.5a3.246,3.246,0,0,0,1.46,2.531c.81.468,1.463.089,1.463-.842a3.226,3.226,0,0,0-1.463-2.531C97.6,155.191,96.945,155.569,96.945,156.5Z" transform="translate(-89.731 -151.292)" fill="#7aa3e5"/><path d="M98.966,157.668a3.248,3.248,0,0,0,1.46,2.534c.81.464,1.463.086,1.463-.846a3.221,3.221,0,0,0-1.463-2.531C99.619,156.358,98.966,156.736,98.966,157.668Z" transform="translate(-84.539 -148.294)" fill="#7aa3e5"/><path d="M100.987,158.836a3.23,3.23,0,0,0,1.463,2.531c.807.468,1.46.089,1.46-.842a3.227,3.227,0,0,0-1.463-2.534C101.64,157.526,100.987,157.9,100.987,158.836Z" transform="translate(-79.346 -145.297)" fill="#7aa3e5"/><path d="M103.008,160a3.245,3.245,0,0,0,1.46,2.531c.81.468,1.463.089,1.463-.842a3.227,3.227,0,0,0-1.463-2.534C103.661,158.693,103.008,159.068,103.008,160Z" transform="translate(-74.154 -142.299)" fill="#7aa3e5"/><path d="M105.029,161.168a3.246,3.246,0,0,0,1.463,2.534c.807.468,1.46.089,1.46-.842a3.221,3.221,0,0,0-1.463-2.534C105.682,159.858,105.029,160.236,105.029,161.168Z" transform="translate(-68.961 -139.301)" fill="#7aa3e5"/><path d="M107.051,162.335a3.238,3.238,0,0,0,1.46,2.534c.8.468,1.46.089,1.46-.842a3.236,3.236,0,0,0-1.463-2.534C107.7,161.025,107.047,161.4,107.051,162.335Z" transform="translate(-63.766 -136.303)" fill="#7aa3e5"/></g><path d="M94.872,153.227a3.236,3.236,0,0,0,1.46,2.531c.807.468,1.46.089,1.46-.842a3.226,3.226,0,0,0-1.46-2.531C95.525,151.917,94.872,152.3,94.872,153.227Z" transform="translate(-94.872 -152.184)" fill="#7aa3e5"/><path d="M96.893,154.395a3.226,3.226,0,0,0,1.46,2.531c.807.468,1.46.089,1.46-.842a3.238,3.238,0,0,0-1.46-2.534C97.546,153.085,96.893,153.463,96.893,154.395Z" transform="translate(-89.679 -149.186)" fill="#7aa3e5"/><path d="M98.914,155.562a3.248,3.248,0,0,0,1.46,2.534c.807.464,1.46.086,1.46-.846a3.233,3.233,0,0,0-1.46-2.534C99.567,154.252,98.914,154.63,98.914,155.562Z" transform="translate(-84.487 -146.188)" fill="#7aa3e5"/><path d="M100.935,156.73a3.236,3.236,0,0,0,1.463,2.531c.8.468,1.456.089,1.456-.842a3.238,3.238,0,0,0-1.46-2.534C101.588,155.417,100.935,155.8,100.935,156.73Z" transform="translate(-79.294 -143.191)" fill="#7aa3e5"/><path d="M102.956,157.9a3.235,3.235,0,0,0,1.463,2.531c.8.464,1.456.089,1.46-.842a3.236,3.236,0,0,0-1.463-2.534C103.609,156.584,102.956,156.962,102.956,157.9Z" transform="translate(-74.102 -140.193)" fill="#7aa3e5"/><path d="M104.977,159.061a3.242,3.242,0,0,0,1.463,2.534c.8.464,1.456.089,1.46-.846a3.236,3.236,0,0,0-1.463-2.531C105.63,157.751,104.977,158.129,104.977,159.061Z" transform="translate(-68.909 -137.194)" fill="#7aa3e5"/><path d="M107,160.228a3.23,3.23,0,0,0,1.463,2.531c.8.468,1.456.089,1.456-.842a3.226,3.226,0,0,0-1.46-2.531C107.651,158.918,107,159.3,107,160.228Z" transform="translate(-63.717 -134.196)" fill="#7aa3e5"/></g><path d="M213.14,108.819c-1.478.853-1.478,2.234,0,3.087a5.913,5.913,0,0,0,5.35,0c1.478-.853,1.474-2.234,0-3.087A5.906,5.906,0,0,0,213.14,108.819Z" transform="translate(223.27 -42.878)" fill="#031f60"/></g><g transform="translate(83.763 41.023)" opacity="0.6"><path d="M356.744,100.217c0-16.465-11.665-23.2-25.924-14.97l-.264.153c-14.259,8.231-26.848,28.408-27.98,44.83l-1.124,16.4c-.621,9.055-9.327,21.13-19.446,26.973s-18.321,1-18.328-10.808l-.011-14.652c-.007-13.239-9.4-18.66-20.866-12.054h0c-10.9,6.282-20.659,21.676-21.694,34.208l-1.578,19.081c-.967,11.722-10.09,26.12-20.274,32l-1.635.942c-10.187,5.879-19.488,1.121-20.673-10.583l-8.27-81.594c-1.66-16.38-14.688-23.047-28.943-14.816l-.264.153c-14.259,8.234-25.927,28.44-25.927,44.905V331.044l243.2-140.409Z" transform="translate(-113.542 -81.735)" fill="#6cebff"/><path d="M356.744,190.635V100.217c0-16.465-11.665-23.2-25.924-14.97l-.264.153c-14.259,8.231-26.848,28.408-27.98,44.83l-1.124,16.4c-.621,9.055-9.327,21.13-19.446,26.973s-18.321,1-18.328-10.808l-.011-14.652c-.007-13.239-9.4-18.66-20.866-12.054h0c-10.9,6.282-20.659,21.676-21.694,34.208l-1.578,19.081c-.967,11.722-10.09,26.12-20.274,32l-1.635.942c-10.187,5.879-19.488,1.121-20.673-10.583l-8.27-81.594c-1.66-16.38-14.688-23.047-28.943-14.816l-.264.153c-14.259,8.234-25.927,28.44-25.927,44.905V331.044" transform="translate(-113.542 -81.735)" fill="none" stroke="#e9fffb" stroke-linecap="round" stroke-miterlimit="10" stroke-width="1"/></g><g transform="translate(153.25)"><path d="M319.26,212.569c-.957,11.768-10.033,26.077-20.277,31.952-10.419,5.982-20.209,1.289-22.048-10.376,0,0-1.2-7.62-2.677-17.018s-9.723-12.957-18.41-7.942S238.665,227.728,236.87,239.4L233.2,263.288c-1.8,11.672-9.958,25.007-18.236,29.782s-16.2-.842-17.7-12.557l-7.046-40.879c-2.809-16.294-16.694-22.8-31.01-14.534l-.268.154c-14.316,8.267-25.924,28.369-25.924,44.9V400.692l243.2-140.413V89.628c0-16.533-10.458-23.921-23.358-16.5s-24.443,26.791-25.781,43.267Z" transform="translate(-133.01 -70.242)" fill="#6cebff" opacity="0.8"/><path d="M376.212,260.28V89.628c0-16.533-10.458-23.921-23.358-16.5s-24.443,26.791-25.781,43.267l-7.813,96.175c-.957,11.768-10.033,26.077-20.277,31.952-10.419,5.982-20.209,1.289-22.048-10.376,0,0-1.2-7.62-2.677-17.018s-9.723-12.957-18.41-7.942S238.665,227.728,236.87,239.4L233.2,263.288c-1.8,11.672-9.958,25.007-18.236,29.782s-16.2-.842-17.7-12.557l-7.046-40.879c-2.809-16.294-16.694-22.8-31.01-14.534l-.268.154c-14.316,8.267-25.924,28.369-25.924,44.9V400.692" transform="translate(-133.01 -70.242)" fill="none" stroke="#e9fffb" stroke-linecap="round" stroke-miterlimit="10" stroke-width="1"/></g></g></g></g></svg>