<svg xmlns="http://www.w3.org/2000/svg" xmlns:xlink="http://www.w3.org/1999/xlink" width="617.235" height="599.675" viewBox="0 0 617.235 599.675"><defs><linearGradient id="a" y1="0.5" x2="1" y2="0.5" gradientUnits="objectBoundingBox"><stop offset="0" stop-color="#c2c4c4"/><stop offset="1" stop-color="#ededed"/></linearGradient><linearGradient id="b" y1="0.5" x2="1" y2="0.5" gradientUnits="objectBoundingBox"><stop offset="0" stop-color="#7c7c80"/><stop offset="0.58" stop-color="#929296"/><stop offset="1" stop-color="#bdbdc5"/></linearGradient><linearGradient id="c" y1="0.5" x2="1" y2="0.5" gradientUnits="objectBoundingBox"><stop offset="0" stop-color="#c0c0c4"/><stop offset="1" stop-color="#d7d7dd"/></linearGradient><linearGradient id="e" y1="0.5" x2="1" y2="0.5" gradientUnits="objectBoundingBox"><stop offset="0" stop-color="#d6d6dd"/><stop offset="1" stop-color="#dfdfe5"/></linearGradient><linearGradient id="f" y1="0.5" x2="1" y2="0.5" gradientUnits="objectBoundingBox"><stop offset="0" stop-color="#51b1af"/><stop offset="0.672" stop-color="#65c0b0"/><stop offset="1" stop-color="#72c9b2"/></linearGradient><linearGradient id="j" x1="0" y1="0.5" x2="1" y2="0.5" xlink:href="#f"/><linearGradient id="n" x1="0.847" y1="0.062" x2="0.117" y2="0.982" gradientUnits="objectBoundingBox"><stop offset="0" stop-color="#6cebff"/><stop offset="1" stop-color="#ccf4fa"/></linearGradient></defs><g transform="translate(-555.915 -401.394)"><g transform="translate(561.915 256.107)"><g transform="translate(-6 438.325)"><path d="M696.291,388.924h0C665,406.486,614.964,405.98,584.539,387.794c-14.961-8.943-22.39-20.495-22.356-32.018l-.268,215.084c-.033,11.523,7.4,23.076,22.361,32.018,30.42,18.186,80.453,18.692,111.752,1.129,15.906-8.922,23.912-20.8,23.945-32.7l.264-215.089C720.2,368.123,712.2,380,696.291,388.924Z" transform="translate(-561.915 -310.219)" fill="url(#a)"/><path d="M697.678,358.862c-30.424-18.186-80.458-18.692-111.752-1.129s-32.01,46.54-1.589,64.727,80.458,18.692,111.752,1.129S728.1,377.048,697.678,358.862Zm-21.156,53.028c-20.182,11.322-52.438,11-72.051-.728s-19.156-30.408,1.021-41.73,52.438-11,72.05.728S696.7,400.567,676.522,411.889Z" transform="translate(-561.713 -344.884)" fill="#f4f4f4"/><path d="M655.184,375.064c-20.182,11.322-52.438,11-72.051-.728-9.645-5.764-14.438-13.213-14.417-20.641l-.025,8.784c-.021,7.428,4.773,14.878,14.418,20.641,19.613,11.728,51.869,12.05,72.051.728,10.252-5.751,15.413-13.41,15.438-21.085l.025-8.784C670.6,361.655,665.436,369.309,655.184,375.064Z" transform="translate(-540.349 -316.842)" fill="url(#b)"/><path d="M656.184,355.683c-19.612-11.724-51.869-12.05-72.05-.728s-20.633,30.006-1.021,41.73,51.869,12.05,72.051.728S675.8,367.407,656.184,355.683Zm-21.6,29.429c-8.487,4.764-22.055,4.626-30.3-.305s-8.056-12.791.431-17.55,22.051-4.626,30.3.305S643.072,380.353,634.585,385.113Z" transform="translate(-540.329 -339.192)" fill="url(#c)"/><path d="M609.229,354.535a29.923,29.923,0,0,0-13.731-3.748q-.665-.031-1.33-.038a31.179,31.179,0,0,0-15.242,3.48c-8.487,4.764-8.679,12.619-.431,17.551a30.606,30.606,0,0,0,15,3.79h16.6Z" transform="translate(-528.441 -326.223)" fill="#9b9ba0"/><path d="M612.145,360.6c-8.487,4.764-22.055,4.626-30.3-.305-4.057-2.426-6.069-5.559-6.061-8.683l-.025,8.783c-.008,3.124,2,6.257,6.061,8.683,8.248,4.931,21.817,5.069,30.3.305,4.312-2.418,6.483-5.638,6.491-8.867l.025-8.784C618.628,354.964,616.458,358.185,612.145,360.6Z" transform="translate(-517.864 -323.466)" fill="url(#b)"/><path d="M612.558,352.451c-8.253-4.931-21.817-5.069-30.3-.305s-8.679,12.619-.431,17.55,21.817,5.069,30.3.305S620.806,357.382,612.558,352.451Z" transform="translate(-517.846 -332.865)" fill="url(#e)"/><path d="M582.6,386.081V560.017c19.788-1.008,42.019-6.563,57.344-19.106V366.975c-7.934,6.491-17.718,11.113-28.053,14.2A126.017,126.017,0,0,1,582.6,386.081Z" transform="translate(-496.082 -274.577)" fill="#5b5b5b"/><g transform="translate(86.518 98.639)"><path d="M628.8,378.559c-20.332,12.092-37.322,10.825-46.2,12.322v11.8c23.414-1.56,48.272-11.607,57.344-20.152v-10C636.711,372.18,632.871,376.166,628.8,378.559Z" transform="translate(-582.6 -355.613)" fill="#656568"/><path d="M639.944,390.626V380.567c-3.237-.343-7.09,3.647-11.147,6.031a83.332,83.332,0,0,1-18.266,7.775c-13.184,3.974-22.352,3.932-27.932,4.614v11.724C604.965,409.222,630.629,399.259,639.944,390.626Z" transform="translate(-582.6 -330.024)" fill="url(#f)"/><path d="M582.6,398.716c19.044-1.263,40.764-7.562,57.344-20.361v-9.8a4.535,4.535,0,0,0-3.756.966C620.445,381.575,602.668,385.6,582.6,387Z" transform="translate(-582.6 -368.467)" fill="#656568"/><path d="M636.188,401.628a74.883,74.883,0,0,1-25.656,12.857c-13.134,3.957-22.331,3.969-27.932,4.7v11.64c19.181-1.271,40.848-7.633,57.344-20.361v-9.737A4.67,4.67,0,0,0,636.188,401.628Z" transform="translate(-582.6 -266.069)" fill="url(#f)"/><path d="M639.944,386.392v-9.8a4.506,4.506,0,0,0-3.756.966c-23.047,17.647-43.5,15.677-53.588,17.379v11.812C601.623,405.494,623.394,399.166,639.944,386.392Z" transform="translate(-582.6 -342.88)" fill="url(#f)"/><path d="M639.944,414.529v-9.8a4.546,4.546,0,0,0-3.756.962,74.882,74.882,0,0,1-25.656,12.853c-13.184,3.978-22.352,3.932-27.932,4.613v11.72C601.928,433.556,623.444,427.27,639.944,414.529Z" transform="translate(-582.6 -253.322)" fill="url(#f)"/><path d="M636.188,385.593c-15.183,11.632-35.4,16.877-53.588,17.509v11.686c19.863-1.313,41.086-7.8,57.344-20.357v-9.8A4.557,4.557,0,0,0,636.188,385.593Z" transform="translate(-582.6 -317.287)" fill="url(#j)"/><path d="M639.944,388.575c-2.844-.326-6.111,3.2-11.147,6.161-14.083,8.374-30.584,11.31-46.2,12.4v11.711c23.126-1.535,48.2-11.548,57.344-20.118Z" transform="translate(-582.6 -304.538)" fill="url(#f)"/><path d="M592.316,421.636c17.5-2.652,33.788-8.449,47.628-19.177v-9.775a4.673,4.673,0,0,0-3.756.908,74.115,74.115,0,0,1-25.656,12.853c-13.276,4-22.394,3.986-27.932,4.638v11.678A62.172,62.172,0,0,0,592.316,421.636Z" transform="translate(-582.6 -291.656)" fill="url(#f)"/><path d="M636.188,397.652c-15.672,12.008-33.683,16.087-53.588,17.475v11.724c.9-.067,4.58-.364,9.716-1.15,17.036-2.581,33.549-8.269,47.628-19.182v-9.825A4.557,4.557,0,0,0,636.188,397.652Z" transform="translate(-582.6 -278.907)" fill="url(#f)"/></g><path d="M636.268,369.635V538.79c-14.384,11.774-34.841,17.337-53.668,18.814v2.413c19.788-1.008,42.019-6.567,57.344-19.106V366.975C638.781,367.929,637.506,368.761,636.268,369.635Z" transform="translate(-496.082 -274.577)" fill="#5b5b5b"/><path d="M582.6,386.081V560.017c19.788-1.008,42.019-6.563,57.344-19.106V366.975c-7.934,6.491-17.718,11.113-28.053,14.2A126.017,126.017,0,0,1,582.6,386.081Z" transform="translate(-496.082 -274.577)" opacity="0.2" fill="url(#n)" style="mix-blend-mode:overlay;isolation:isolate"/><path d="M604.269,351.271c3.016,1.74,1.3,7.474-5.258,11.26s-15.463,4.183-18.479,2.443-.151-6.224,6.4-10S601.249,349.527,604.269,351.271Z" transform="translate(-506.482 -326.766)" opacity="0.9" fill="url(#e)" style="mix-blend-mode:screen;isolation:isolate"/></g><g transform="translate(141.091 -114.431)"><g transform="translate(39.142 259.718)"><path d="M409.421,560.461,67.818,757.625,56.129,764.37l-13.949-8.013a6.863,6.863,0,0,1-3.037-5.3V466.7a7.105,7.105,0,0,1,1.024-3.457,7.239,7.239,0,0,1,2.507-2.649L389.327,260.462a6.642,6.642,0,0,1,6.109,0l13.879,8.013Z" transform="translate(-39.142 -259.718)" fill="#1e3779"/><path d="M67.818,333.308V611.732l-11.689,6.745-13.949-8.013a6.863,6.863,0,0,1-3.037-5.3V320.806a7.105,7.105,0,0,1,1.024-3.457Z" transform="translate(-39.142 -113.825)" fill="#031f60"/><path d="M52.377,459.748,392.656,263.29c5.068-2.924,9.175-.555,9.175,5.3v276.97c0,5.852-4.107,12.964-9.175,15.892L52.38,757.906c-5.068,2.927-9.175.554-9.175-5.3l0-276.969C43.2,469.788,47.313,462.676,52.377,459.748Z" transform="translate(-28.864 -253.848)" fill="#344593"/></g><g transform="translate(111.019 267.908)"><path d="M68.666,459.748,408.945,263.29c5.068-2.924,9.175-.555,9.175,5.3v276.97c0,5.852-4.107,12.964-9.175,15.892L68.67,757.906c-5.068,2.927-9.175.554-9.175-5.3V475.64C59.495,469.788,63.6,462.676,68.666,459.748Z" transform="translate(-59.495 -262.037)" fill="#e9fffb" opacity="0.2"/><path d="M68.666,459.748,408.945,263.29c5.068-2.924,9.175-.555,9.175,5.3v276.97c0,5.852-4.107,12.964-9.175,15.892L68.67,757.906c-5.068,2.927-9.175.554-9.175-5.3V475.64C59.495,469.788,63.6,462.676,68.666,459.748Z" transform="translate(-59.495 -262.037)" fill="none" stroke="#e9fffb" stroke-miterlimit="10" stroke-width="1"/></g><g transform="translate(153.898 383.446)"><path d="M107.39,419.534,110.042,418c7.72-4.453,16.132-4.1,22.372.109,3.316,2.235,11.756,6.777,11.756,6.777l4.559,25.384c4.958,12.724,18.562,17.5,30.385,10.676l.219-.131c11.823-6.823,22.192-23.4,23.156-37.017l10.9-89.7c.964-13.621,10.927-29.961,22.252-36.5a19.275,19.275,0,0,1,18.844-.735c4.443,2.31,14.207,8.211,14.207,8.211l9.563,53.93c4.725,12.809,17.032,18.3,27.489,12.265,5.76-3.327,11.8-3.062,16.665.042,3.969,2.532,11.8,6.957,11.8,6.957l9.987,53.626L85.982,597.536l-14.345-8.278,12.1-132.743C84.976,442.916,95.567,426.364,107.39,419.534Z" transform="translate(-71.637 -294.754)" fill="#56cadc"/><path d="M111.452,421.883l2.656-1.536c11.824-6.826,25.275-2.37,30.046,9.955l8.638,22.319c4.958,12.717,18.565,17.5,30.389,10.669l.215-.124c11.824-6.826,22.192-23.4,23.16-37.017l10.895-89.7c2.158-16.842,10.93-29.958,22.252-36.495S264.035,298.5,268.76,311.3l13.561,50.052c4.725,12.809,17.032,18.3,27.486,12.261s21.846-.254,25.437,12.918l13.014,47.707L75.7,591.6,87.8,458.858C89.041,445.265,99.629,428.706,111.452,421.883Z" transform="translate(-61.354 -288.817)" fill="#6cebff"/><path d="M76.31,348.229c0,2.829,2.539,3.655,5.668,1.847L132.7,320.8c3.132-1.808,5.672-5.569,5.672-8.394s-2.539-3.655-5.672-1.847l-50.72,29.283C78.849,341.647,76.31,345.4,76.31,348.229Z" transform="translate(-59.807 -257.175)" fill="#6cebff"/><path d="M76.31,354.1c0,2.825,2.539,3.655,5.668,1.847l50.72-29.283c3.132-1.808,5.672-5.566,5.672-8.391s-2.539-3.655-5.672-1.847L81.978,345.7C78.849,347.511,76.31,351.268,76.31,354.1Z" transform="translate(-59.807 -242.323)" fill="#6cebff"/></g></g><path d="M39.554,557.513,379.631,361.1a6.486,6.486,0,0,1,5.9.007l7.976,4.627c1.625.944,1.625,2.473-.007,3.414L53.393,565.506a6.546,6.546,0,0,1-5.9,0l-7.938-4.586C37.922,559.98,37.922,558.454,39.554,557.513Z" transform="translate(164.411 142.649)" fill="#6b99d1" opacity="0.15" style="mix-blend-mode:multiply;isolation:isolate"/></g></g></svg>