<?xml version="1.0" encoding="utf-8"?>
<!-- Generator: Adobe Illustrator 20.1.0, SVG Export Plug-In . SVG Version: 6.00 Build 0)  -->
<svg version="1.1" id="Capa_1" xmlns="http://www.w3.org/2000/svg" xmlns:xlink="http://www.w3.org/1999/xlink" x="0px" y="0px"
	 viewBox="0 0 369.5 110" style="enable-background:new 0 0 369.5 110;" xml:space="preserve">
<style type="text/css">
	.st0{fill:#343433;}
	.st1{fill:#636462;}
	.st2{fill:#69ACE0;}
</style>
<polygon id="Fill-1_1_" class="st0" points="128.2,13.5 157.4,13.5 157.4,18.5 133.9,18.5 133.9,36.3 152.9,36.3 152.9,41.2 
	133.9,41.2 133.9,60.1 158.3,60.1 158.3,65.1 128.2,65.1 "/>
<polygon id="Fill-2_1_" class="st0" points="167.8,7.8 173.4,7.3 173.4,65.1 167.9,65.1 "/>
<path id="Fill-3_1_" class="st0" d="M211.6,42.4v-3.2c0-3.5-0.7-6-2.1-7.5c-1.5-1.7-4.2-2.5-7.9-2.5c-4.5,0-7.6,1-9.2,2.9
	c-1.6,1.9-2.4,5.3-2.4,10.4L211.6,42.4L211.6,42.4z M216.9,62.9c-4.6,1.9-9.8,2.8-15.4,2.8c-3.3,0-6-0.3-8.3-1c-3.6-1-6-3.2-7.2-6.4
	c-1.1-3-1.7-7.5-1.7-13.5v-1.7c0-7.1,1.5-12.1,4.4-15c2.7-2.6,7.1-3.8,13.4-3.8c6.1,0,10.2,1.5,12.5,4.5c1.1,1.5,1.8,3.2,2.1,5.3
	c0.3,2.1,0.5,4.1,0.5,5.9c0,2.9-0.1,5.2-0.2,6.8c-3.2,0.1-6,0.2-8.5,0.2h-5.4c-5.6,0-10-0.2-13.1-0.7c0,5.2,0.7,8.8,2,10.8
	c1.6,2.5,4.8,3.7,9.5,3.7c4.8,0,9.3-0.9,13.7-2.8L216.9,62.9z"/>
<path id="Fill-5_1_" class="st0" d="M256.5,63.3c-3.1,1.6-7.4,2.5-12.8,2.5c-3.2,0-5.6-0.2-7.1-0.7c-3.8-1.3-6.4-3.5-7.5-6.6
	c-0.8-2.2-1.3-4.5-1.4-7s-0.2-4.6-0.2-6.4c0-1.7,0-3.4,0.1-5.1c0.1-1.6,0.3-3.2,0.7-4.8c0.4-1.5,0.9-2.9,1.6-4.3
	c0.7-1.3,1.7-2.5,2.9-3.4c2.7-2.1,6.5-3.1,11.5-3.1c3.7,0,7.1,0.5,10.2,1.6c0.8,0.3,1.5,0.5,1.9,0.8l-1.7,5
	c-4.3-1.7-7.8-2.5-10.6-2.5c-2.8,0-4.8,0.3-6.1,0.9c-1.3,0.6-2.3,1.6-3,2.9c-1.2,2.2-1.8,6.2-1.8,12.1c0,2.4,0.1,4.5,0.2,6.5
	c0.2,1.9,0.6,3.6,1.2,5c1.3,2.9,4.1,4.3,8.2,4.3c4.1,0,8.2-0.7,12.1-2.2L256.5,63.3z"/>
<path id="Fill-7_1_" class="st0" d="M287.3,63.1c-3.7,1.7-7,2.6-10.1,2.6c-5.6,0-8.8-2.4-9.6-7.2c-0.2-1.1-0.3-2.8-0.3-5V29.7h-4.8
	v-4.1l4.8-0.5l0.9-9.2h4.7V25h11.7v4.7h-11.7v23.8c0,2.8,0.2,4.5,0.6,5.3c0.7,1.4,2.2,2.1,4.4,2.1c2.2,0,4.7-0.7,7.4-2.1L287.3,63.1
	z"/>
<path id="Fill-9_1_" class="st0" d="M309.3,29.9c-2.9,0-5.8,1.4-8.8,4.3v30.9H295V25h4.9l0.5,5.3c1.1-1.6,2.2-2.9,3.4-3.8
	c1.2-0.9,2.2-1.5,3-1.7c1.1-0.3,2.2-0.5,3.2-0.5c1,0,2.3,0.2,3.8,0.6l-0.5,5.4C312.2,30,310.9,29.9,309.3,29.9"/>
<path id="Fill-11_1_" class="st0" d="M321.5,74.8c1.6,0.6,3,0.9,4,0.9s1.7,0,2.1-0.1c0.3-0.1,0.7-0.2,1-0.4c0.8-0.4,1.4-1.1,1.8-2.1
	c0.9-2.3,1.8-4.8,2.5-7.5L317.3,25h6.2l10.4,29.5l1.6,5.2l1.4-5.2l9.2-29.5h5.9l-16.9,49.6c-1.2,3.9-4.1,5.8-8.6,5.8
	c-2.8,0-5.1-0.4-6.7-1.2L321.5,74.8z"/>
<path id="Fill-13_1_" class="st1" d="M135.8,95.9c1.6,0,3.1-0.3,4.7-0.9l0.6,2c-0.7,0.4-1.6,0.6-2.6,0.8c-1,0.1-1.9,0.2-2.7,0.2
	h-0.2c-3.4,0-5.7-1-6.9-2.9c-0.7-1.2-1.1-2.8-1.3-4.8c-0.1-1-0.1-2-0.1-3.2c0-1.2,0-2.3,0.1-3.3c0.1-1,0.2-2,0.4-2.9
	c0.2-0.9,0.5-1.6,0.8-2.3c0.4-0.7,0.9-1.3,1.5-1.7c1.3-1,3.1-1.5,5.5-1.5c1.5,0,2.8,0.1,3.7,0.3c0.9,0.2,1.6,0.4,1.9,0.5l-0.7,2.3
	c-1.9-0.7-3.5-1-4.8-1s-2.4,0.2-3.1,0.5c-0.7,0.3-1.3,0.9-1.7,1.6c-0.7,1.3-1.1,3.7-1.1,7.3v1.1c0,2.9,0.4,5,1.1,6.1
	c0.8,1.3,2.4,1.9,4.6,1.9L135.8,95.9L135.8,95.9z"/>
<path id="Fill-15_1_" class="st1" d="M148.6,95.2c0.3,0.3,0.8,0.5,1.3,0.6c0.5,0.1,1.2,0.2,2.1,0.2c0.9,0,1.7-0.1,2.3-0.4
	c0.6-0.3,1.1-0.7,1.4-1.2c0.3-0.6,0.5-1.3,0.6-2.2c0.1-0.9,0.1-2,0.1-3.2s0-2.2-0.1-3c-0.1-0.8-0.3-1.5-0.5-2
	c-0.6-1-1.9-1.6-3.8-1.6c-2.1,0-3.5,0.5-4.1,1.6c-0.3,0.5-0.5,1.2-0.6,2c-0.1,0.8-0.1,1.7-0.1,2.7c0,1,0,1.8,0,2.4
	c0,0.7,0.1,1.3,0.2,1.8c0.1,0.5,0.2,1,0.4,1.4C148,94.6,148.2,94.9,148.6,95.2 M144.6,89.2c0-2.2,0.1-3.7,0.3-4.6
	c0.2-0.9,0.5-1.6,0.8-2.1c0.3-0.5,0.8-0.9,1.3-1.3c1.1-0.7,2.7-1,4.9-1c3.1,0,5.1,0.8,6,2.3c0.5,0.9,0.8,2.2,0.9,3.9
	c0,0.8,0,1.7,0,2.6c0,1,0,1.9-0.1,2.7c-0.1,0.8-0.2,1.6-0.4,2.2c-0.2,0.7-0.4,1.2-0.8,1.7c-0.3,0.5-0.8,0.9-1.3,1.2
	c-1.1,0.7-2.6,1-4.6,1c-3,0-5-0.8-6-2.3c-0.6-0.9-0.9-2.2-1-3.9C144.7,91,144.6,90.1,144.6,89.2"/>
<path id="Fill-17_1_" class="st1" d="M172.9,82.5c-1.9,0-3.8,0.6-5.7,1.7v13.5h-2.4V80.5h2.1l0.2,1.8c1.1-0.9,2.4-1.5,3.9-1.8
	c0.6-0.2,1.4-0.2,2.2-0.2c0.9,0,1.6,0.1,2.3,0.3c0.6,0.2,1.2,0.5,1.6,0.9c0.7,0.8,1.1,2.2,1.1,4.3v12h-2.4V86.2
	c0-1.4-0.1-2.3-0.4-2.7c-0.3-0.4-0.6-0.7-1-0.8C174,82.6,173.5,82.5,172.9,82.5"/>
<path id="Fill-19_1_" class="st1" d="M184.5,94.3c2,1.1,4,1.7,6,1.7c1.7,0,2.6-0.6,2.9-1.8c0.1-0.4,0.1-0.9,0.1-1.5
	c0-0.6-0.1-1-0.2-1.4c-0.1-0.3-0.4-0.6-0.7-0.7c-0.3-0.2-0.7-0.3-1.3-0.4c-0.5-0.1-1.2-0.2-2-0.3c-0.8-0.1-1.5-0.3-2.2-0.5
	c-0.7-0.2-1.2-0.4-1.7-0.8c-1-0.7-1.5-1.9-1.4-3.5v-0.4c0-1.8,0.6-3,1.7-3.7c1.1-0.7,3-1,5.5-0.7c1.8,0.2,3.1,0.5,4.2,0.9l-0.7,2.2
	c-1.2-0.5-2.5-0.8-4.2-1.1c-0.5-0.1-1-0.1-1.4-0.1c-0.4,0-0.8,0-1.2,0.1c-0.4,0.1-0.7,0.2-0.9,0.4c-0.5,0.4-0.7,1.1-0.7,2.1
	c0,1.2,0.3,2,1,2.3c0.7,0.3,1.5,0.5,2.4,0.7c0.9,0.1,1.7,0.2,2.3,0.3c0.6,0.1,1.1,0.2,1.6,0.4c0.5,0.2,0.9,0.4,1.2,0.7
	c0.7,0.7,1.1,1.9,1.1,3.6c0,3-1.3,4.6-3.7,5.1c-0.7,0.1-1.5,0.2-2.2,0.2c-0.7,0-1.4,0-2-0.1c-0.6-0.1-1.2-0.2-1.8-0.4
	c-1.1-0.3-2-0.7-2.9-1.2L184.5,94.3z"/>
<path id="Fill-21_1_" class="st1" d="M214.7,90.1c0,3.2,0.1,5.7,0.3,7.4l-2.2,0.2l-0.3-2c-1.1,0.9-2.4,1.6-3.9,2
	c-0.6,0.2-1.3,0.2-2.1,0.2c-0.8,0-1.6-0.1-2.2-0.3c-0.7-0.2-1.2-0.5-1.6-0.9c-0.7-0.8-1.1-2.2-1.1-4.3v-12h2.4v11.6
	c0,1.4,0.1,2.3,0.4,2.7c0.3,0.4,0.6,0.7,1,0.8c0.4,0.1,0.8,0.2,1.3,0.2c0.5,0,1,0,1.5-0.1c0.5-0.1,1-0.2,1.4-0.4
	c1-0.3,1.9-0.8,2.7-1.3v0c0-0.7-0.1-2.2-0.1-4.3v-9.2h2.4L214.7,90.1L214.7,90.1z"/>
<polygon id="Fill-23_1_" class="st1" points="221.9,73.2 224.3,73 224.3,97.7 222,97.7 "/>
<path id="Fill-25_1_" class="st1" d="M239.7,96.9c-1.6,0.7-3,1.1-4.3,1.1c-2.4,0-3.8-1-4.1-3.1c-0.1-0.5-0.1-1.2-0.1-2.1V82.5h-2.1
	v-1.8l2.1-0.2l0.4-3.9h2v3.9h5v2h-5v10.2c0,1.2,0.1,1.9,0.3,2.3c0.3,0.6,1,0.9,1.9,0.9c1,0,2-0.3,3.2-0.9L239.7,96.9z"/>
<path id="Fill-27_1_" class="st1" d="M244.1,80.5h2.4v17.2h-2.3L244.1,80.5z M245.3,76.4c-0.6,0-1.1-0.1-1.2-0.3
	c-0.3-0.3-0.4-0.7-0.4-1.2c0-0.5,0-0.9,0.1-1.1c0.1-0.2,0.2-0.4,0.3-0.5c0.2-0.2,0.6-0.3,1.1-0.3c0.5,0,0.8,0,1,0.1
	c0.2,0.1,0.4,0.1,0.5,0.3c0.2,0.2,0.4,0.6,0.4,1.1c0,0.5,0,0.9-0.1,1.1c-0.1,0.2-0.1,0.4-0.3,0.5C246.4,76.3,245.9,76.4,245.3,76.4
	L245.3,76.4z"/>
<path id="Fill-29_1_" class="st1" d="M261.6,82.5c-1.9,0-3.8,0.6-5.7,1.7v13.5h-2.4V80.5h2.1l0.2,1.8c1-0.9,2.4-1.5,3.9-1.8
	c0.6-0.2,1.4-0.2,2.2-0.2c0.9,0,1.6,0.1,2.3,0.3c0.6,0.2,1.2,0.5,1.6,0.9c0.7,0.8,1.1,2.2,1.1,4.3v12h-2.4V86.2
	c0-1.4-0.1-2.3-0.4-2.7c-0.3-0.4-0.6-0.7-1-0.8C262.6,82.6,262.2,82.5,261.6,82.5"/>
<path id="Fill-31_1_" class="st1" d="M284.1,83.7c-1.7-0.9-3.4-1.3-5-1.3c-1.2,0-2,0.1-2.3,0.3c-0.4,0.2-0.7,0.4-0.9,0.8
	c-0.2,0.3-0.4,0.7-0.5,1.3c-0.2,1-0.3,2.7-0.3,5V90c0,2.1,0.3,3.6,0.8,4.5c0.5,0.9,1.5,1.3,2.9,1.3h0.2c1.3,0,2.7-0.4,4.1-1.1
	c0.4-0.2,0.7-0.4,1-0.6V83.7z M284.2,81.7l0.2-1.2h2.1l0,16.9c0,2.5-0.5,4.3-1.5,5.4c-1,1.2-2.8,1.8-5.3,1.8c-1.9,0-3.6-0.3-5.1-0.8
	c-0.4-0.1-0.7-0.2-0.9-0.3l0.7-2c0.2,0.1,0.4,0.2,0.8,0.3c0.3,0.1,0.7,0.3,1.2,0.4c1.2,0.3,2.3,0.5,3.3,0.5c1,0,1.8-0.1,2.3-0.3
	c0.5-0.2,1-0.5,1.3-0.9c0.5-0.7,0.8-2,0.8-3.9v-1.4c-1.8,1.3-3.8,1.9-5.8,1.9c-2.4,0-4-0.9-4.8-2.6c-0.5-1-0.7-2.2-0.8-3.7
	c0-0.7,0-1.4,0-2.2c0-0.8,0-1.6,0-2.5c0-0.8,0.1-1.6,0.2-2.3c0.1-0.7,0.3-1.3,0.5-1.9c0.2-0.6,0.5-1,1-1.4c0.9-0.8,2.2-1.2,4.1-1.2
	C280.2,80.2,282.1,80.7,284.2,81.7L284.2,81.7z"/>
<path id="Fill-33_1_" class="st2" d="M50.2,32v45.5h12.5c6.4,0,11.5-5.2,11.5-11.5V43.5C74.2,37.2,69,32,62.7,32H50.2z M86.5,66
	c0,13.1-10.7,23.8-23.8,23.8H37.9V76H17.6V63.7h20.3V45.8H17.6V33.6h20.3V19.7h24.8c13.1,0,23.8,10.7,23.8,23.8v5.1h22.7
	C106.1,21.3,82.9,0,54.8,0C24.5,0,0,24.5,0,54.8s24.5,54.8,54.8,54.8c28.2,0,51.4-21.3,54.4-48.6H86.5V66z"/>
<path class="st0" d="M363.3,24.3c0.9,0,1.7,0.2,2.5,0.7c0.8,0.4,1.4,1.1,1.9,1.9c0.5,0.8,0.7,1.7,0.7,2.6c0,0.9-0.2,1.7-0.7,2.5
	c-0.4,0.8-1.1,1.4-1.9,1.9c-0.8,0.4-1.6,0.7-2.5,0.7c-0.9,0-1.7-0.2-2.5-0.7c-0.8-0.4-1.4-1.1-1.9-1.9c-0.4-0.8-0.7-1.7-0.7-2.5
	c0-0.9,0.2-1.7,0.7-2.6c0.5-0.8,1.1-1.4,1.9-1.9C361.6,24.5,362.4,24.3,363.3,24.3 M363.3,25.1c-0.7,0-1.4,0.2-2.1,0.5
	c-0.7,0.4-1.2,0.9-1.6,1.6c-0.4,0.7-0.6,1.4-0.6,2.1c0,0.7,0.2,1.4,0.6,2.1c0.4,0.7,0.9,1.2,1.6,1.6c0.7,0.4,1.4,0.6,2.1,0.6
	c0.7,0,1.4-0.2,2.1-0.6c0.7-0.4,1.2-0.9,1.6-1.6c0.4-0.7,0.6-1.4,0.6-2.1c0-0.7-0.2-1.4-0.6-2.1c-0.4-0.7-0.9-1.2-1.6-1.6
	C364.7,25.3,364,25.1,363.3,25.1 M361,32.2v-5.5h1.9c0.6,0,1.1,0,1.4,0.2c0.3,0.1,0.5,0.3,0.7,0.5c0.2,0.3,0.3,0.5,0.3,0.8
	c0,0.4-0.1,0.7-0.4,1c-0.3,0.3-0.7,0.5-1.1,0.5c0.2,0.1,0.3,0.2,0.5,0.3c0.2,0.2,0.5,0.6,0.8,1.1l0.7,1.1h-1.1l-0.5-0.9
	c-0.4-0.7-0.7-1.1-0.9-1.3c-0.2-0.1-0.4-0.2-0.7-0.2h-0.5v2.3H361z M361.9,29.1h1.1c0.5,0,0.9-0.1,1-0.2c0.2-0.2,0.3-0.4,0.3-0.6
	c0-0.2,0-0.3-0.1-0.4c-0.1-0.1-0.2-0.2-0.4-0.3c-0.2-0.1-0.5-0.1-0.9-0.1h-1V29.1z"/>
</svg>
