<?xml version="1.0" encoding="utf-8"?>
<!-- Generator: Adobe Illustrator 24.0.2, SVG Export Plug-In . SVG Version: 6.00 Build 0)  -->
<svg version="1.1" id="Capa_1" xmlns="http://www.w3.org/2000/svg" xmlns:xlink="http://www.w3.org/1999/xlink" x="0px" y="0px"
	 viewBox="0 0 247 244" style="enable-background:new 0 0 247 244;" xml:space="preserve">
<style type="text/css">
	.st0{opacity:0.6;fill:#69ACE0;}
	.st1{
		opacity:0.4;fill:#69ACE0;
		animation-name: rotation;
		animation-duration: .8s;
		animation-iteration-count: infinite;
		transform-origin: 50% 50%;
		animation-timing-function:linear;

	}
	.st2{
		opacity:0.3;fill:#69ACE0;
		animation-name: rotation;
		animation-duration: .8s;
		animation-iteration-count: infinite;
		transform-origin: 50% 50%;
		animation-timing-function:linear;
	}

@keyframes rotation {
	0% {
		transform:rotate(0deg);
	}

	100% {
		transform:rotate(360deg);
	}

}


</style>
<path id="Fill-33_1_" class="st0" d="M118.6,103.7v45.5h12.5c6.4,0,11.5-5.2,11.5-11.5v-22.5c0-6.3-5.2-11.5-11.5-11.5H118.6z
	 M154.9,137.7c0,13.1-10.7,23.8-23.8,23.8h-24.8v-13.8H86v-12.3h20.3v-17.9H86v-12.2h20.3V91.4h24.8c13.1,0,23.8,10.7,23.8,23.8v5.1
	h22.7c-3.1-27.3-26.3-48.6-54.4-48.6c-30.3,0-54.8,24.5-54.8,54.8s24.5,54.8,54.8,54.8c28.2,0,51.4-21.3,54.4-48.6h-22.7V137.7z"/>
<path class="st1" d="M194.5,126.5c1.5,51.8-55,92-103.6,73.5C22.4,175.9,22.3,77.1,91,53C139.6,34.5,196,74.7,194.5,126.5z
	 M194.5,126.5c1.2-49.6-54.8-84.7-98.7-61.6c-50.8,24-50.8,99.3,0,123.3C139.7,211.2,195.8,176.1,194.5,126.5z"/>
<path class="st2" d="M11.1,126.7C9.4-0.7,192.5-32.9,236,85.4c7.3,20.8,9,43.5,4.7,65.2C214,284.9,10.1,263.8,11.1,126.7z
	 M12.9,126.7c-1.1,77.5,77.4,123.9,147.2,97c86-30.2,86-163.8,0-194C90.2,2.8,11.8,49.2,12.9,126.7z"/>
</svg>
